<svg preserveAspectRatio="none" width="100%" height="100%" overflow="visible" style="display: block;" viewBox="0 0 24 24" fill="none" xmlns="http://www.w3.org/2000/svg">
<g id="SVG">
<path id="Vector" d="M20.38 3.46L16 2C16 3.06087 15.5786 4.07828 14.8284 4.82843C14.0783 5.57857 13.0609 6 12 6C10.9391 6 9.92172 5.57857 9.17157 4.82843C8.42143 4.07828 8 3.06087 8 2L3.62 3.46C3.16738 3.61079 2.78358 3.91842 2.53785 4.32734C2.29213 4.73627 2.20068 5.21956 2.28 5.69L2.86 9.16C2.89808 9.39491 3.01868 9.60855 3.20014 9.76251C3.3816 9.91648 3.61202 10.0007 3.85 10H6V20C6 21.1 6.9 22 8 22H16C16.5304 22 17.0391 21.7893 17.4142 21.4142C17.7893 21.0391 18 20.5304 18 20V10H20.15C20.388 10.0007 20.6184 9.91648 20.7999 9.76251C20.9813 9.60855 21.1019 9.39491 21.14 9.16L21.72 5.69C21.7993 5.21956 21.7079 4.73627 21.4621 4.32734C21.2164 3.91842 20.8326 3.61079 20.38 3.46Z" stroke="var(--stroke-0, black)" stroke-width="2" stroke-linecap="round" stroke-linejoin="round"/>
</g>
</svg>
