<svg preserveAspectRatio="none" width="100%" height="100%" overflow="visible" style="display: block;" viewBox="0 0 58 72" fill="none" xmlns="http://www.w3.org/2000/svg">
<g id="streamline:arrow-up-1">
<path id="Vector" d="M32.4084 7.26004C32.3406 7.40338 32.2067 7.59626 32.0584 7.78457C31.9367 7.93347 31.7897 8.09281 31.6472 8.2376C31.5577 8.32921 31.5049 8.21721 31.4381 8.27946C31.2964 8.41838 31.2835 8.53245 31.1542 8.63997C31.1123 8.6732 31.0066 8.52815 30.9658 8.5653C30.7469 8.7637 30.6005 9.0683 30.4141 9.29295C29.438 10.4906 28.6381 11.6822 27.7765 13.0126C27.5104 13.4208 27.0725 13.8801 26.8658 14.3857C26.8419 14.4447 26.9889 14.4839 26.9936 14.5003C27.064 14.7555 26.834 14.5572 26.7431 14.6391C26.3835 14.9638 26.1189 15.4181 25.9488 15.8537C25.8767 16.0394 26.2285 16.0035 25.9894 16.1011C25.9731 16.1081 25.859 15.9897 25.8185 16.0298C25.7266 16.1215 25.6413 16.3409 25.589 16.413C25.4845 16.5572 25.4721 16.5839 25.3921 16.7317C25.2816 16.9334 25.0846 17.1423 25.0002 17.3824C24.9827 17.4338 25.1579 17.4444 25.1428 17.533C25.1276 17.6215 25.0113 17.818 24.9424 17.8697C24.8735 17.9212 24.7762 17.8345 24.7442 17.8335C24.4758 17.8223 24.6542 18.217 24.649 18.2461C24.5059 18.8441 24.1014 19.2265 23.8475 19.75C23.6521 20.1541 23.5147 20.5897 23.3311 20.9602C23.1125 21.4002 22.8572 21.7465 22.6699 22.1969C22.65 22.2444 22.8467 22.2671 22.8228 22.3252C22.5751 22.9273 22.2972 23.5091 21.9214 24.066C21.8835 24.1218 21.7646 23.9784 21.7176 24.0303C21.4316 24.3533 20.8874 24.812 21.4653 25.3054C21.3369 25.5448 21.1869 25.8393 20.9618 26.0126C20.8167 26.1245 20.7053 25.9156 20.7056 26.1244C20.7055 26.1714 20.8733 26.1765 20.8621 26.2425C20.8153 26.519 20.6558 26.788 20.6371 27.0656C20.6334 27.1228 20.7711 27.1593 20.7894 27.1829C20.936 27.3777 20.5401 27.4595 20.5002 27.4955C20.1998 27.7689 20.1761 28.0437 20.0562 28.3606C20.0284 28.4342 20.2388 28.4116 20.2185 28.4846C20.1112 28.8614 19.9586 29.2446 19.7557 29.5744C19.71 29.6483 19.5821 29.5219 19.5524 29.5546C19.4232 29.6998 19.7 29.8361 19.5823 29.9774C19.5579 30.0074 19.433 29.9436 19.4165 29.945C19.1567 29.9669 19.4492 30.1605 19.4479 30.1879C19.4383 30.5394 19.035 30.6343 18.9821 30.9621C18.9762 31.0013 19.1702 30.9709 19.1434 31.0778C18.9649 31.7936 18.6975 32.5089 18.3634 33.1681C18.3118 33.2705 18.207 33.1571 18.1895 33.1594C17.9135 33.2015 18.2205 33.3666 18.2229 33.4053C18.2333 33.7088 17.8864 33.8963 18.2265 34.1921C17.7732 35.3369 17.7121 36.5727 17.1133 37.6865C17.106 37.7009 16.9474 37.64 16.9337 37.6688C16.7673 38.0154 17.037 37.9975 17.3025 38.2986C17.3692 38.3739 16.9562 38.4859 16.9254 38.4973C16.8121 38.5378 16.5789 38.4294 16.5553 38.4457C16.3687 38.5834 17.184 38.7078 17.1436 38.9295C17.141 38.9362 16.997 38.8798 16.9788 38.8958C16.9216 38.9454 16.9705 39.0138 16.9089 39.0615C16.7668 39.1703 16.3637 39.1484 16.5589 39.3888C16.5844 39.4193 17.0517 39.4599 16.9964 39.6549C16.9737 39.7327 16.9244 40.0853 16.8793 40.1792C16.834 40.273 16.6957 40.1821 16.6881 40.1881C16.4499 40.4241 16.384 40.3106 16.0718 40.4012C15.7609 40.493 16.4599 40.5586 16.5293 40.6245C16.5984 40.6903 16.4075 40.8625 16.3441 40.903C16.2807 40.9433 16.1944 40.8697 16.1563 40.9082C15.9071 41.1649 16.4836 41.081 16.581 41.1894C16.8124 41.4437 16.2749 41.547 16.1991 41.7443C16.1787 41.7974 16.3017 41.7672 16.3068 41.8172C16.3253 42.0152 16.1504 42.1136 16.2737 42.3505C16.2937 42.3896 16.5852 42.6 16.3452 42.6909C16.3107 42.7038 16.1866 42.644 16.1492 42.7236C16.0931 42.8426 16.0432 43.0629 16.0742 43.1997C16.0972 43.3007 16.32 43.2078 16.2428 43.3248C16.2085 43.3769 16.0931 43.2642 16.0389 43.3633C15.9846 43.4619 15.9683 43.725 15.9651 43.8252C15.9618 43.9252 16.1275 43.883 16.1377 43.8919C16.1962 43.9453 16.2602 44.141 16.2589 44.1577C16.2193 45.0038 15.9138 45.7821 15.9944 46.6138C16.0005 46.6789 16.1718 46.6374 16.1745 46.6473C16.244 46.8696 15.7915 46.6906 15.6385 46.8462C15.9851 46.8255 15.9216 46.9172 15.9597 47.074C15.9784 47.1496 16.1125 47.1082 16.1262 47.1151C16.3302 47.2265 16.0676 47.3054 16.0139 47.3261C15.8163 47.4023 16.0512 47.4812 15.9194 47.5334C15.7887 47.5859 15.5923 47.4709 15.5969 47.6232C15.7216 47.6638 16.044 47.5471 16.0983 47.6606C16.3015 48.0867 16.0787 48.894 16.0748 49.2428C16.0692 49.5892 16.1008 49.6984 16.0713 49.9034C16.0197 50.2737 16.2488 50.1209 16.3781 50.335C16.5084 50.5488 15.9093 50.4957 15.7857 50.5402C15.6622 50.5845 15.7959 50.6072 15.7302 50.654C15.6646 50.701 15.57 50.6225 15.5532 50.7196C15.5363 50.8173 15.7889 51.0514 15.9249 51.0692C16.2129 51.1077 16.4935 50.9608 16.4184 51.2163C16.414 51.2311 16.254 51.2035 16.2448 51.2593C16.1764 51.7025 16.2304 52.1485 16.194 52.5936C16.1888 52.6549 16.0094 52.6295 16.0045 52.6656C15.9539 53.0429 16.2212 52.8677 16.5739 53.0063C16.1414 53.0364 15.8991 53.1902 15.9471 53.4647C15.9762 53.6293 16.1562 53.5661 16.3068 53.6461C16.3521 53.6698 16.2478 53.8098 16.3389 53.8134C16.6368 53.8249 16.9326 53.6543 16.8622 53.9534C16.8587 53.9667 16.6954 53.9605 16.6947 54.0042C16.6899 54.2869 16.993 54.2552 17.0938 54.534C17.1729 54.7526 17.0905 55.1946 17.1292 55.4587C16.6582 55.5755 16.831 55.794 17.1806 55.8028C17.2129 55.9722 17.2819 56.1454 17.2846 56.318C17.2857 56.3774 17.1404 56.3811 17.1279 56.3924C16.9313 56.5673 17.2651 56.5464 17.288 56.578C17.5237 56.9259 17.3929 57.3192 17.7461 57.6017C17.7589 57.6118 18.0839 57.5209 17.8856 57.6984C17.8719 57.7104 17.685 57.6421 17.7341 57.816C17.7827 57.9891 17.732 58.3739 17.9694 58.5527C18.0266 58.5964 18.3367 58.6377 18.1843 58.8312C18.1635 58.8573 18.0671 58.8767 18.0261 58.9189C17.8964 59.0551 18.2275 58.9652 17.9945 59.1592C17.7615 59.3531 17.6364 59.6175 17.9236 59.7767C17.9323 59.7821 18.204 59.7302 18.2328 59.8057C18.2782 59.926 18.3012 60.1135 18.3591 60.2343C18.3868 60.292 18.5217 60.1843 18.5291 60.1931C18.7945 60.5403 18.7929 60.878 18.9484 61.3203C18.9769 61.4022 19.292 61.51 19.2117 61.7404C19.1254 61.9945 18.3109 62.2242 18.6922 62.5054C18.849 62.6238 19.8528 62.277 19.5398 62.8085C19.9517 63.237 20.0118 63.8448 20.5067 64.2289C20.5289 64.2463 20.8164 64.1501 20.8485 64.2031C20.8958 64.2824 20.8136 64.4023 20.8446 64.4618C20.9711 64.7116 21.2084 64.8392 21.3512 65.0599C21.4057 65.1432 21.2722 65.2003 21.3381 65.3001C21.4045 65.4 21.5995 65.3497 21.6283 65.5321C21.6496 65.6701 21.4291 66.0025 21.4993 66.16C21.7945 65.9305 21.8589 66.0234 22.0625 66.1153C22.1018 66.1328 22.1759 66.0182 22.1996 66.0222C22.2981 66.0362 22.2589 66.1577 22.36 66.1646C22.3844 66.1664 22.4827 66.085 22.5081 66.0817C22.7273 66.0505 22.6349 66.3842 22.6196 66.4429C22.5603 66.6649 22.7266 66.6028 22.7349 66.7256C22.7422 66.8469 22.5771 66.801 22.6174 66.9153C22.7016 67.1526 22.9206 67.3634 23.0804 67.543C23.1448 67.6142 23.2245 67.45 23.2367 67.4575C23.4024 67.5716 23.4113 67.8428 23.7318 67.6856C23.1984 68.396 23.8756 67.7126 23.9498 68.037C23.9555 68.0628 23.6822 68.3767 23.5771 68.3575C23.472 68.338 23.4716 68.1527 23.3194 68.1322C23.2838 68.1276 22.8891 68.2786 22.8562 68.2781C22.5999 68.2763 23.0339 67.8318 23.0525 67.802C23.2487 67.4744 22.8086 67.6163 22.7513 67.5966C22.4913 67.51 22.4205 67.3004 22.218 67.214C22.0852 67.1557 21.7683 67.4103 21.7072 67.3209C21.5026 67.0204 21.8608 66.5654 21.2704 66.6211C21.1443 66.6322 20.8437 66.9673 20.9534 66.5471C20.9599 66.5202 21.0918 66.1736 20.8659 66.2129C20.8374 66.2179 20.7359 66.2981 20.7161 66.2905C20.5854 66.2376 20.617 66.1101 20.4974 66.0351C20.3777 65.96 20.2226 65.8767 20.1679 65.7291C20.1346 65.6402 20.2608 65.4041 20.2834 65.3349C20.3497 65.137 20.0491 65.196 20.1717 65.0129C20.2961 64.8304 20.6385 64.7703 20.6329 64.5305C20.3536 64.7179 20.0613 64.9022 19.7774 65.0862C19.5276 64.7092 19.3744 64.283 19.1241 63.9153C19.0928 63.8698 18.9702 64.0141 18.9325 63.9675C18.7742 63.7698 18.7701 63.5164 18.5942 63.321C18.4571 63.1694 18.183 63.0783 18.0351 62.9142C18.3055 62.6112 18.0395 62.4004 17.9631 62.1815C17.9363 62.1052 18.0296 62.0618 18.0329 61.9962C18.0438 61.7502 17.7889 61.9958 17.7141 61.9683C17.3948 61.8474 18.0702 61.4785 17.9242 61.2274C17.9169 61.2145 17.4649 61.2241 17.4303 61.2108C17.2075 61.1321 17.5468 61.1238 17.5291 61.0168C17.4972 60.8211 17.5307 60.6618 17.3295 60.5098C17.2703 60.4658 16.9733 60.4288 17.1023 60.2307C17.1193 60.2049 17.2472 60.1589 17.249 60.1433C17.2733 59.868 16.8801 60.0308 16.692 59.957C16.5037 59.8826 16.6929 59.5687 16.7554 59.4968C16.9156 59.3085 16.8751 59.5427 16.8976 59.5403C17.162 59.5101 17.0619 59.3829 17.0379 59.2648C17.419 59.0931 17.3356 58.9509 17.0117 59.143C16.9764 59.1644 17.0467 59.2356 17.0379 59.2648C16.6189 59.3214 16.5003 59.1647 16.7863 58.8397C16.9207 58.6877 17.1471 58.6968 16.9766 58.4586C16.8998 58.3502 16.6469 58.496 16.5339 58.4149C16.2755 58.2278 16.4178 57.8185 16.2936 57.5752C16.2483 57.4864 16.1286 57.6267 16.0924 57.5674C15.996 57.4095 16.061 57.2232 15.9503 57.0692C15.9401 57.0553 15.7943 57.1419 15.7758 57.0887C15.6328 56.6856 15.633 56.3001 15.5235 55.8717C15.4702 55.6648 15.29 55.3154 15.2576 55.0944C15.199 54.7111 15.3363 54.2013 15.2174 53.8931C15.1405 53.6912 14.9876 53.7677 14.8601 53.698C14.6129 53.5621 14.9429 53.1834 14.9959 53.133C14.9975 53.1315 15.067 53.3055 15.1337 53.1948C15.2979 53.1092 14.997 53.135 14.9959 53.133C15.0292 53.0992 15.0071 52.7323 14.9654 52.6653C14.9423 52.629 14.7913 52.6747 14.7822 52.6551C14.5692 52.1906 14.4648 51.7031 14.4827 51.1986C14.4848 51.1895 14.6599 51.1835 14.6629 51.1625C14.709 50.8686 14.4786 50.7075 14.3307 50.4805C14.183 50.2537 14.2105 50.0589 14.4992 49.8966C14.4481 49.7205 14.5638 49.4563 14.6358 49.3054C14.7077 49.1546 14.3673 49.1524 14.3598 49.1397C14.1239 48.7451 14.3089 48.4999 14.3278 48.0794C14.3371 47.8792 14.2815 47.4833 14.2437 47.2662C14.2129 47.0943 14.2927 46.992 14.2425 46.8344C14.2358 46.8131 14.0843 46.8338 14.0785 46.8273C13.8985 46.6495 14.2681 46.7372 14.3345 46.7015C14.5762 46.5723 14.7049 46.4947 14.5959 46.2697C14.5709 46.2183 14.0413 46.0556 14.0127 45.9591C13.9765 45.8343 14.1662 45.8864 14.1238 45.7559C14.1204 45.7447 14.0024 45.7433 14.0102 45.6635C14.045 45.293 14.1322 44.8926 14.1434 44.5075C14.1454 44.4549 13.9547 44.5112 13.9545 44.4347C13.954 44.0767 13.9896 43.6868 14.1063 43.3482C14.1356 43.265 14.2615 43.3296 14.3018 43.3144C14.5457 43.2221 14.2199 43.0321 14.2159 43.0046C14.1116 42.3562 14.4727 41.9054 14.4081 41.25C14.4037 41.2147 14.076 40.8971 14.404 40.8198C14.4258 40.8142 14.7603 40.7409 14.5575 40.6062C14.5449 40.5977 14.3705 40.6482 14.4055 40.522C14.4405 40.3961 14.3617 40.1725 14.5685 40.0237C14.6337 39.9762 14.9705 39.895 14.7446 39.6894C14.7285 39.6766 14.1999 39.3258 14.6088 39.2992C14.6761 39.2951 15.0893 39.3804 14.9095 39.1474C14.8746 39.1026 14.7701 39.1553 14.7292 39.0458C14.6662 38.8776 14.813 38.6959 14.6622 38.475C14.6353 38.4366 14.3793 38.2448 14.614 38.1729C14.6508 38.1617 14.783 38.2208 14.8095 38.1649C14.9364 37.8997 14.9012 37.5895 15.0543 37.3263C15.1083 37.2332 15.3209 37.33 15.4021 37.2387C15.4831 37.1473 15.5843 36.9516 15.5058 36.8217C15.4273 36.6916 15.0468 36.7339 15.0538 36.5645C15.0847 35.827 15.458 35.1723 15.6653 34.4814C15.6962 34.3788 15.5483 34.4328 15.5851 34.2791C15.7181 33.7142 15.8691 32.7049 16.2761 32.2979C16.601 31.9725 16.6208 32.506 16.7931 32.2365C16.8757 32.107 16.5168 31.8337 16.5144 31.7953C16.4854 31.4205 16.735 31.2437 16.774 30.9254C16.7822 30.8593 16.5998 30.8697 16.6086 30.814C16.6372 30.6229 16.7705 30.4551 16.8127 30.2779C16.8313 30.1983 16.7024 30.1725 16.7351 30.1041C16.8119 29.9401 16.9134 29.8062 17.0844 29.6792C17.0999 29.6677 17.2207 29.8201 17.2678 29.6968C17.3438 29.4968 17.5423 29.2851 17.5034 29.0135C17.4913 28.9329 17.2099 28.833 17.4557 28.7524C17.5071 28.7355 17.8321 28.8921 17.5989 28.6194C17.5596 28.5752 17.2676 28.1443 17.5724 28.0908C17.6526 28.0767 17.9631 28.079 17.9492 27.9809C17.9463 27.9672 17.7792 27.9583 17.7891 27.8843C17.8265 27.6244 17.9344 27.3775 17.9783 27.1134C17.9898 27.0427 17.7978 27.0835 17.82 26.9799C17.8806 26.6947 18.0467 26.3733 18.1952 26.1307C18.2503 26.0413 18.3531 26.1571 18.3698 26.1554C18.64 26.1302 18.359 25.9462 18.356 25.9007C18.3405 25.6227 18.5544 25.4994 18.6016 25.2685C18.6151 25.2049 18.4528 25.1896 18.4445 25.1726C18.3664 24.9991 18.5915 25.1944 18.6512 25.1281C18.8192 24.9426 18.9045 24.6968 18.9746 24.4713C19.0001 24.3884 18.7953 24.41 18.8202 24.3363C18.965 23.898 19.162 23.4701 19.4335 23.0875C19.4845 23.0165 19.5921 23.1207 19.6285 23.1169C19.8818 23.092 19.672 22.8081 19.6617 22.7587C19.614 22.5345 19.7563 22.517 19.8007 22.3571C20.013 21.58 20.4999 20.7019 20.8671 20.0369C21.3379 19.1839 21.8007 18.5333 22.1848 17.6855C22.2094 17.6317 22.0164 17.6019 22.0355 17.5544C22.2833 16.9581 22.6612 16.3789 22.919 15.7706C22.9406 15.7205 22.748 15.7082 22.7775 15.625C22.8369 15.4539 22.9505 15.259 23.0838 15.128C23.1485 15.064 23.2275 15.2378 23.2899 15.1721C23.4318 15.0259 23.5571 14.8183 23.6339 14.6164C23.6669 14.5291 23.442 14.5663 23.4972 14.4595C23.8718 13.7287 24.212 13.0506 24.8297 12.4362C24.8714 12.3955 25.2141 12.5342 25.2113 12.3973C25.1274 12.3392 25.0233 12.2802 24.9308 12.2229C25.4484 11.1994 26.1439 10.2726 26.796 9.24926C26.8224 9.20787 26.6126 9.17835 26.6628 9.09773C26.9383 8.65557 27.2097 8.12077 27.6657 7.76531C27.7107 7.72988 27.9842 7.9363 28.0253 7.77629C28.0297 7.75178 28.1265 7.51691 28.1046 7.41432C28.1003 7.40042 27.9401 7.3546 27.9827 7.28011C28.2378 6.84155 28.4982 6.5115 28.8681 6.13445C28.9236 6.08057 29.0198 6.24193 29.0604 6.20465C29.3218 5.97638 29.4989 5.48831 29.7994 5.32754C30.0542 5.14438 30.2295 5.40606 30.538 5.46997C30.5816 5.47882 30.6538 5.38835 30.8172 5.44907C31.1785 5.67063 31.4892 6.03174 31.8835 6.25504C31.9272 6.27723 31.9693 6.21542 31.9873 6.21671C32.0054 6.21795 32.0329 6.23531 32.1204 6.31449C32.1489 6.30137 32.0884 6.51953 32.1547 6.56406C32.1884 6.61153 32.348 6.682 32.3825 6.75509C32.4163 6.82913 32.2715 6.78565 32.2873 6.9071C32.3092 7.02186 32.4634 7.1406 32.4084 7.26004ZM14.9626 48.6308C15.1205 48.4903 14.5219 48.4924 14.6707 48.6337C14.6786 48.6405 14.9549 48.6381 14.9626 48.6308ZM19.7569 64.0371C19.8813 63.7454 19.4902 63.8537 19.3869 64.0698C19.285 64.2871 19.7199 64.1265 19.7569 64.0371ZM20.9642 65.4191C21.0095 65.1328 20.3088 65.612 20.5791 65.6869C20.5947 65.6914 20.9618 65.4359 20.9642 65.4191ZM30.2646 6.00554C30.2725 6.00796 30.3366 5.92878 30.3311 5.92299C30.2056 5.77038 30.0775 5.92876 30.2646 6.00554ZM22.258 66.692C22.3031 66.5686 22.0827 66.5134 22.0255 66.6666C21.9798 66.7905 22.2024 66.8462 22.258 66.692ZM15.9087 41.714C15.9178 41.713 15.9351 41.638 15.885 41.6333C15.7233 41.6184 15.7556 41.7302 15.9087 41.714ZM24.3645 68.887C24.0525 68.546 24.3544 67.8582 24.6464 68.2526C24.7002 68.3244 24.3542 68.281 24.3912 68.4047C24.4611 68.6321 24.8632 68.4073 24.8567 68.7238C24.8558 68.7822 24.3815 68.9082 24.3632 68.8871C24.3636 68.8871 24.364 68.887 24.3645 68.887ZM15.6775 48.5257C15.6852 48.5228 15.6888 48.4166 15.6809 48.4143C15.489 48.3634 15.4817 48.5785 15.6775 48.5257ZM17.0104 37.3774C17.0279 37.3751 17.0942 37.1391 17.0808 37.128C16.8039 36.9373 16.6683 37.417 17.0104 37.3774ZM17.1178 55.466C17.3314 55.5278 17.3879 55.651 17.1807 55.8022C17.163 55.6896 17.1353 55.579 17.1178 55.466ZM33.0453 5.00707C33.1158 5.04669 33.0921 5.14216 33.0421 5.22669C33.0267 5.2531 32.924 5.28115 32.9089 5.30105C32.8794 5.33993 32.9366 5.34443 32.8997 5.38579C32.887 5.39967 32.726 5.44866 32.7162 5.46188C32.664 5.53386 32.7203 5.56231 32.7043 5.62137C32.6253 5.91241 32.6508 6.15985 32.6661 6.41873C32.6713 6.50403 32.5634 6.65052 32.6555 6.70615C32.6663 6.71259 32.8023 6.65536 32.8143 6.65285C32.9988 6.6151 32.7167 6.71039 32.6864 6.74224C32.567 6.86836 32.584 6.95245 32.663 7.00114C32.6971 7.0217 32.9602 6.88965 32.8174 6.97674C32.8077 6.98268 32.6584 7.03021 32.6458 7.04408C32.6174 7.07542 32.6565 7.10006 32.6502 7.11849C32.6372 7.15429 32.6404 7.15823 32.6483 7.18452C32.6579 7.22093 32.6007 7.28997 32.648 7.31516C32.6586 7.32037 32.8048 7.25342 32.8352 7.25664C32.8655 7.2599 32.8655 7.2986 32.8344 7.32332C32.8032 7.34804 32.6833 7.38744 32.657 7.39961C32.4348 7.5019 32.7659 7.42254 32.7756 7.42465C32.9435 7.46673 32.7928 7.61325 32.8257 7.69948C32.8511 7.76479 32.9369 7.81264 32.9521 7.87812C32.9697 7.95635 32.9119 8.0499 32.953 8.11691C32.9572 8.12404 33.1305 8.04889 33.1359 8.05747C33.1936 8.14871 33.2111 8.25418 33.1288 8.3974C33.1204 8.41182 32.9605 8.45723 32.9428 8.47511C32.838 8.58333 32.5676 8.79373 33.2564 8.57649C33.2454 8.62731 33.2368 8.68722 33.1144 8.77487C33.0356 8.83132 32.858 8.87173 32.941 8.87371C32.9595 8.87423 33.1043 8.81025 33.1209 8.81523C33.1905 8.83623 33.1594 8.89939 33.2511 8.91159C33.2701 8.91394 33.4019 8.86197 33.4267 8.85538C33.6274 8.80269 33.3201 8.95545 33.2996 8.97134C33.1469 9.09096 33.23 9.10535 33.2449 9.15789C33.2483 9.17011 33.4211 9.08937 33.4308 9.09874C33.4784 9.14818 33.486 9.21504 33.4287 9.30244C33.4155 9.32205 33.2593 9.36709 33.2453 9.37937C33.1851 9.43281 33.4739 9.33141 33.4217 9.38059C33.4111 9.39082 33.2801 9.43641 33.2662 9.44276C33.0481 9.54232 33.3705 9.43698 33.379 9.43838C33.4938 9.45336 33.1747 9.61002 33.24 9.64157C33.2482 9.64522 33.4076 9.57037 33.4204 9.58439C33.507 9.67746 33.5055 9.8108 33.4149 9.96903C33.4011 9.99355 33.2731 10.0277 33.2583 10.0345C33.027 10.141 33.3498 10.0328 33.3639 10.0338C33.4666 10.0451 33.2147 10.1859 33.6052 10.0733C33.5427 10.3072 33.8247 10.411 33.5533 10.7215C33.5503 10.7253 33.3918 10.7799 33.3863 10.7873C33.3192 10.8762 33.559 10.774 33.8712 10.6992C33.9495 10.6805 33.6001 10.8438 33.5746 10.8562C33.4808 10.9018 33.2438 10.9798 33.2261 10.99C33.0877 11.0707 33.8581 10.7772 33.8712 10.8113C33.8703 10.8128 33.7265 10.8616 33.7135 10.8698C33.6724 10.8953 33.7322 10.883 33.6866 10.91C33.5809 10.9724 33.2084 11.1201 33.4381 11.0687C33.4679 11.062 33.9036 10.8919 33.8944 10.9302C33.8903 10.9456 33.918 10.9966 33.8953 11.0223C33.8726 11.048 33.7276 11.0905 33.7219 11.0939C33.5505 11.2044 33.4674 11.218 33.1987 11.3419C32.9311 11.4654 33.5854 11.2137 33.6618 11.1946C33.738 11.1755 33.5952 11.2629 33.5444 11.2903C33.4936 11.3177 33.4005 11.3422 33.3727 11.36C33.1908 11.4774 33.7056 11.2568 33.8151 11.232C34.0743 11.173 33.5973 11.3815 33.5611 11.4301C33.5513 11.4432 33.6596 11.3949 33.6728 11.3984C33.7233 11.4128 33.578 11.4873 33.7298 11.4684C33.7545 11.4653 34.0573 11.3825 33.849 11.4804C33.819 11.4945 33.695 11.5329 33.6725 11.5556C33.6387 11.5895 33.6248 11.633 33.6728 11.6378C33.7084 11.6413 33.9019 11.5495 33.8468 11.5913C33.8222 11.61 33.6995 11.6385 33.663 11.6699C33.6264 11.7012 33.6464 11.7388 33.656 11.7523C33.6658 11.7658 33.8143 11.7007 33.825 11.6981C33.8863 11.6835 33.9702 11.6849 33.971 11.6875C34.0376 11.8089 33.8264 12.0231 33.9578 12.1163C33.9679 12.1237 34.1253 12.0572 34.1285 12.0578C34.2081 12.0662 33.7731 12.1991 33.6395 12.2759C33.9627 12.1509 33.9092 12.1867 33.9536 12.197C33.9753 12.2019 34.0986 12.1486 34.1119 12.1448C34.309 12.0902 34.067 12.1944 34.0177 12.2163C33.8364 12.297 34.0601 12.227 33.939 12.2811C33.8188 12.3349 33.6298 12.3857 33.6407 12.4075C33.7592 12.3703 34.0564 12.2397 34.1121 12.2385C34.3225 12.2337 34.1298 12.4443 34.1246 12.5058C34.1195 12.5672 34.1472 12.576 34.1166 12.6221C34.0613 12.7054 34.2789 12.6009 34.3948 12.5963C34.5107 12.5919 33.9503 12.7829 33.8331 12.8325C33.7158 12.882 33.8403 12.8413 33.7771 12.8718C33.7139 12.9023 33.6281 12.9197 33.6088 12.943C33.5895 12.9663 33.8158 12.9253 33.9422 12.8836C34.21 12.7953 34.4804 12.6741 34.3971 12.7478C34.3921 12.7521 34.2438 12.7998 34.2322 12.8135C34.1444 12.9207 34.1628 12.9909 34.088 13.0931C34.0775 13.1073 33.9124 13.16 33.9044 13.169C33.8211 13.262 34.0871 13.1402 34.4018 13.0561C33.9953 13.2009 33.7543 13.31 33.7673 13.352C33.775 13.3773 33.9499 13.3069 34.0802 13.2763C34.1195 13.267 34.0049 13.33 34.0891 13.302C34.3643 13.2108 34.6618 13.0805 34.5568 13.1682C34.5517 13.1722 34.401 13.222 34.3944 13.2318C34.3511 13.2954 34.6367 13.194 34.6879 13.2261C34.7281 13.2512 34.5786 13.3787 34.5654 13.4293C34.1109 13.5987 34.2291 13.5976 34.5481 13.4956C34.545 13.5264 34.5732 13.5479 34.5394 13.5892C34.5279 13.6034 34.3942 13.647 34.3804 13.6535C34.1638 13.7538 34.4727 13.6509 34.4868 13.652C34.6257 13.6693 34.4133 13.8055 34.6608 13.779C34.6697 13.778 34.9865 13.6631 34.7619 13.765C34.7464 13.7719 34.5957 13.8066 34.5948 13.8381C34.5939 13.8696 34.4441 13.9845 34.6045 13.9676C34.6432 13.9636 34.908 13.8908 34.7149 13.9845C34.6887 13.9972 34.5971 14.0284 34.5481 14.0508C34.392 14.1226 34.7133 14.0093 34.4475 14.1245C34.1817 14.2397 33.9894 14.3441 34.1906 14.3123C34.1965 14.3115 34.4527 14.2258 34.4532 14.2393C34.4538 14.261 34.4114 14.308 34.4206 14.3275C34.425 14.3367 34.5797 14.2718 34.5832 14.2723C34.6953 14.304 34.5726 14.4024 34.5379 14.4943C34.5312 14.5113 34.7589 14.4675 34.5988 14.5555C34.4237 14.6519 33.6427 14.913 33.8496 14.9062C33.9324 14.9036 34.9218 14.5688 34.4322 14.8036C34.5903 14.8437 34.3613 15.0214 34.5733 15.0416C34.5827 15.0425 34.8602 14.9527 34.8599 14.9633C34.859 14.9793 34.7343 15.0346 34.7296 15.0476C34.7065 15.103 34.8297 15.0996 34.8276 15.1455C34.827 15.1629 34.6932 15.207 34.6926 15.2277C34.692 15.2483 34.8701 15.1952 34.7954 15.2509C34.7383 15.2931 34.3903 15.4445 34.358 15.4843C34.7084 15.354 34.7075 15.3734 34.811 15.3685C34.8311 15.3674 34.9506 15.3157 34.9664 15.3128C35.0333 15.3003 34.9362 15.3483 35.0084 15.3331C35.0258 15.3295 35.1454 15.2848 35.1663 15.2793C35.349 15.2309 35.091 15.3608 35.046 15.3833C34.8754 15.4691 35.0342 15.4198 34.9697 15.4607C34.9052 15.5016 34.8094 15.5125 34.7734 15.5455C34.6988 15.6139 34.7352 15.6523 34.7432 15.6903C34.7471 15.7052 34.903 15.6356 34.9073 15.6364C34.9589 15.6509 34.8004 15.7446 35.1245 15.6419C34.3103 15.9706 35.2109 15.63 35.0623 15.7341C35.0502 15.7424 34.6631 15.8924 34.6013 15.9009C34.5394 15.9095 34.6536 15.8444 34.558 15.86C34.5356 15.8636 34.1623 15.9759 34.139 15.9809C33.9569 16.0197 34.5363 15.7983 34.5677 15.785C34.9062 15.6404 34.5027 15.7579 34.4727 15.7603C34.3351 15.7713 34.4055 15.7104 34.3056 15.7139C34.241 15.7159 33.8599 15.8566 33.8658 15.837C33.8852 15.7717 34.4093 15.555 33.9312 15.6796C33.8292 15.7062 33.4172 15.8722 33.7303 15.7129C33.7501 15.7028 34.039 15.5634 33.8439 15.6185C33.8193 15.6255 33.6981 15.671 33.6869 15.6722C33.6145 15.6794 33.7067 15.6315 33.6533 15.6297C33.5999 15.628 33.5224 15.6309 33.5553 15.5937C33.575 15.5713 33.7944 15.4698 33.8473 15.4428C33.9999 15.3654 33.7317 15.4442 33.9204 15.3609C34.1101 15.2772 34.4125 15.1886 34.5268 15.1125C34.2116 15.2295 33.8875 15.3481 33.5702 15.4651C33.5574 15.3972 33.6357 15.2964 33.5978 15.2376C33.5928 15.2305 33.4266 15.302 33.4169 15.296C33.3765 15.2702 33.4855 15.1936 33.4235 15.1745C33.3748 15.1599 33.1838 15.1955 33.1273 15.1823C33.4807 15.0289 33.3417 15.0301 33.3625 14.9853C33.3696 14.9697 33.4661 14.9344 33.4944 14.9145C33.5991 14.8405 33.2861 14.9741 33.2329 14.9846C33.0056 15.0289 33.7251 14.7557 33.6914 14.7201C33.6899 14.7181 33.2955 14.8347 33.2701 14.8399C33.1052 14.8744 33.4024 14.7858 33.4251 14.7602C33.4667 14.7133 33.5513 14.6599 33.4268 14.67C33.3899 14.6731 33.1421 14.7404 33.3205 14.6528C33.3438 14.6413 33.4713 14.595 33.478 14.5903C33.5889 14.509 33.1896 14.6576 33.047 14.6883C32.9044 14.719 33.1683 14.585 33.2453 14.549C33.4445 14.4557 33.3378 14.5287 33.3583 14.522C33.602 14.4425 33.5523 14.4356 33.5661 14.4108C33.9564 14.2617 33.9239 14.2465 33.5789 14.3858C33.5412 14.401 33.5827 14.4007 33.5661 14.4108C33.1767 14.5396 33.1176 14.5317 33.4654 14.3682C33.6284 14.2915 33.8292 14.2309 33.742 14.2164C33.7026 14.2098 33.4359 14.318 33.3563 14.3289C33.1745 14.3538 33.4073 14.2104 33.3531 14.1862C33.3334 14.1774 33.1912 14.2465 33.1726 14.2424C33.123 14.2317 33.2251 14.1676 33.1588 14.163C33.1526 14.1626 33.0004 14.2262 32.9954 14.2189C32.9547 14.1648 33.0337 14.0747 33.0126 14.0102C33.0023 13.979 32.8966 13.956 32.9018 13.9178C32.9099 13.8519 33.1089 13.6999 33.0367 13.6733C32.9903 13.6556 32.8385 13.7202 32.7284 13.7465C32.515 13.7975 32.8633 13.6157 32.9176 13.5884C32.9194 13.5876 32.9657 13.6004 33.0397 13.5565C33.2017 13.4865 32.9184 13.5885 32.9176 13.5884C32.9526 13.5708 32.9679 13.5048 32.9345 13.5054C32.9162 13.5058 32.7711 13.5638 32.7644 13.5629C32.607 13.5414 32.5433 13.4846 32.5849 13.3874C32.5874 13.385 32.7517 13.3256 32.7555 13.3208C32.8127 13.2521 32.6026 13.3005 32.471 13.3109C32.3394 13.3212 32.369 13.2792 32.6423 13.1537C32.5972 13.1411 32.7075 13.0576 32.7749 13.0081C32.8422 12.9585 32.5227 13.0749 32.5157 13.0754C32.2923 13.0925 32.4619 12.9904 32.4675 12.9192C32.4708 12.8851 32.4031 12.8452 32.3566 12.8271C32.3193 12.8129 32.3884 12.7701 32.3321 12.7652C32.3246 12.7645 32.184 12.8208 32.1782 12.8219C31.999 12.8601 32.3502 12.7424 32.4102 12.714C32.6282 12.6106 32.7437 12.5539 32.6256 12.5611C32.5985 12.5627 32.0913 12.728 32.0569 12.7253C32.0133 12.7214 32.1947 12.661 32.1444 12.6587C32.1402 12.6584 32.03 12.7001 32.0305 12.6868C32.0317 12.6256 32.0742 12.5435 32.0424 12.4923C32.0384 12.4851 31.867 12.5605 31.8585 12.5512C31.8185 12.5077 31.8039 12.4491 31.8671 12.3685C31.8833 12.3484 32.0087 12.3102 32.0441 12.2939C32.2582 12.1949 31.9295 12.2916 31.922 12.2901C31.734 12.2563 31.9973 12.0778 31.8245 12.0363C31.8145 12.0342 31.4569 12.1237 31.7445 11.9961C31.7636 11.9875 32.0581 11.8575 31.8466 11.9194C31.8334 11.9233 31.6825 11.9921 31.6913 11.9674C31.7 11.9428 31.5852 11.9514 31.7458 11.8618C31.7964 11.8336 32.0894 11.7017 31.8409 11.7671C31.8236 11.7718 31.2684 11.9371 31.6368 11.7837C31.6974 11.7585 32.0933 11.6127 31.8799 11.6596C31.8385 11.6688 31.7542 11.7119 31.6937 11.7179C31.6005 11.7273 31.6952 11.6579 31.5088 11.6964C31.4759 11.7033 31.2001 11.7833 31.3975 11.6906C31.4284 11.6761 31.5621 11.6316 31.5736 11.6174C31.629 11.5497 31.5246 11.5396 31.6002 11.4636C31.6267 11.4368 31.8428 11.3644 31.8941 11.3276C31.9455 11.2907 31.9888 11.239 31.8853 11.2594C31.7817 11.2798 31.4485 11.4248 31.4122 11.4108C31.2547 11.3499 31.415 11.1709 31.4048 11.055C31.4033 11.0378 31.2865 11.0963 31.2756 11.0742C31.2348 10.9929 31.066 10.8895 31.2969 10.7192C31.4818 10.5827 31.6671 10.5977 31.7345 10.5212C31.7665 10.4844 31.3626 10.609 31.3482 10.6085C31.2027 10.6046 31.3644 10.5035 31.2934 10.4775C31.2787 10.4722 31.1221 10.5416 31.1113 10.5364C31.0732 10.5191 31.1338 10.4633 31.1108 10.4417C31.1001 10.4322 30.9786 10.4802 30.984 10.4658C30.9954 10.4318 31.0381 10.3894 31.1432 10.321C31.1528 10.3148 31.3108 10.2734 31.3092 10.2519C31.3062 10.2174 31.4048 10.1362 31.2745 10.144C31.2354 10.1465 30.9557 10.2509 31.1401 10.1556C31.1787 10.1357 31.5166 10.016 31.2166 10.098C31.1667 10.1116 30.7587 10.2133 31.0026 10.0968C31.0668 10.0661 31.3359 9.9483 31.2879 9.95165C31.2804 9.95249 31.1328 10.0157 31.1142 10.0106C31.0512 9.9915 31.0525 9.94623 30.991 9.92536C30.9743 9.9199 30.8247 9.99345 30.8047 9.98345C30.7497 9.95604 30.7695 9.88861 30.8027 9.82918C30.8152 9.80716 30.9479 9.76942 30.9615 9.76306C31.1826 9.65989 30.8712 9.76465 30.851 9.76547C30.7299 9.76903 30.8639 9.68695 30.813 9.66746C30.7993 9.66194 30.6552 9.72351 30.6414 9.72656C30.5065 9.75517 30.7751 9.67082 30.7996 9.64775C30.869 9.58278 30.8429 9.54911 30.8112 9.52159C30.7994 9.51156 30.6347 9.58955 30.626 9.57981C30.5715 9.52338 30.5615 9.44721 30.6305 9.34629C30.6439 9.32718 30.7777 9.2859 30.8066 9.27211C31.0092 9.1759 30.714 9.25678 30.6846 9.26097C30.5503 9.28021 30.6621 9.22622 30.6314 9.21022C30.4797 9.13285 30.5019 8.95879 30.5077 8.82993C30.5144 8.6623 30.5968 8.50328 30.5127 8.37734C30.5075 8.36927 30.3367 8.4434 30.33 8.43729C30.2514 8.35537 30.2834 8.23372 30.1964 8.15472C30.1896 8.14812 30.0288 8.22158 30.0123 8.21307C29.9773 8.19605 29.9737 8.1592 30.0164 8.11271C30.0369 8.09015 30.1851 8.05453 30.2029 8.03291C30.2446 7.98245 30.244 7.94529 30.2058 7.92382C30.1892 7.91482 30.0279 7.99827 30.0194 7.98164C29.9583 7.86966 29.8857 7.76442 30.0596 7.56295C30.0715 7.54913 30.412 7.41331 30.3397 7.42056C30.244 7.45494 30.1319 7.49701 30.0299 7.5346C29.9106 7.383 29.9657 7.16801 29.9194 6.98848C29.9174 6.98093 29.7402 7.06166 29.7355 7.04739C29.7076 6.96482 29.6275 6.9045 29.777 6.75333C29.7915 6.73842 30.113 6.62276 30.0555 6.6165C30.0451 6.61551 29.9886 6.59476 29.9156 6.61129C29.9047 6.61393 29.7579 6.6766 29.7491 6.66639C29.7006 6.60609 29.7077 6.52122 29.7732 6.41835C29.784 6.40164 29.9475 6.35384 29.9566 6.34142C30.02 6.25378 29.8763 6.23817 30.0006 6.13055C30.0844 6.05829 30.3642 5.96852 30.6276 5.84808C30.6648 5.83108 30.6625 5.80663 30.8195 5.74648C31.2142 5.59516 31.6517 5.44344 32.0719 5.28088C32.1625 5.24589 32.0534 5.25287 32.2796 5.18814C32.2948 5.18386 32.3758 5.17808 32.4522 5.15545C32.5051 5.13984 32.6627 5.07318 32.7315 5.056C32.8002 5.03884 32.6691 5.09742 32.7512 5.08088C32.8344 5.06397 33.0144 4.99021 33.0453 5.00707ZM33.0757 12.786C33.2212 12.7089 32.66 12.916 32.802 12.8871C32.8095 12.8854 33.0686 12.7898 33.0757 12.786ZM34.0583 15.1383C34.2957 15.02 33.9259 15.1385 33.7419 15.2282C33.5581 15.3178 33.9864 15.1743 34.0583 15.1383ZM34.3389 15.338C34.5224 15.2349 33.7263 15.5279 33.899 15.4999C33.9088 15.4984 34.3283 15.344 34.3389 15.338ZM30.7377 5.90747C30.7451 5.90441 30.7463 5.88575 30.7388 5.88813C30.5578 5.94632 30.5553 5.98359 30.7377 5.90747ZM34.6347 15.5296C34.7386 15.48 34.6044 15.4994 34.4752 15.5611C34.3713 15.6108 34.5054 15.5915 34.6347 15.5296ZM33.288 11.5334C33.2962 11.5299 33.2994 11.5157 33.2523 11.5336C33.1007 11.5913 33.1495 11.5912 33.288 11.5334ZM34.8128 15.977C34.8178 15.8992 35.4587 15.6129 35.4119 15.7132C35.4034 15.7313 35.192 15.7633 35.1392 15.8022C35.0429 15.8732 35.4624 15.7391 35.2534 15.853C35.2151 15.8738 34.8111 15.982 34.8119 15.9772C34.8122 15.9772 34.8125 15.9771 34.8128 15.977ZM33.7442 12.5224C33.7515 12.5193 33.7526 12.5008 33.7451 12.5032C33.564 12.5613 33.5617 12.5985 33.7442 12.5224ZM33.3843 10.7366C33.3997 10.7298 33.4007 10.6875 33.3857 10.6918C33.0878 10.7816 33.0849 10.8674 33.3843 10.7366ZM34.5536 13.4345C34.7389 13.3847 34.7677 13.3974 34.5483 13.4954C34.5537 13.4738 34.549 13.4558 34.5536 13.4345ZM19.0115 7.5639C19.0602 7.49275 19.1633 7.51714 19.2524 7.56805C19.2802 7.58377 19.3034 7.68778 19.3241 7.70316C19.3646 7.73311 19.3738 7.67526 19.4165 7.7128C19.4308 7.72573 19.4727 7.88878 19.4864 7.89869C19.5616 7.95187 19.597 7.895 19.6606 7.91141C19.9742 7.99254 20.2477 7.96785 20.5329 7.95343C20.6269 7.94854 20.7798 8.05825 20.8476 7.96539C20.8555 7.9544 20.8027 7.81663 20.8008 7.80444C20.773 7.61768 20.8568 7.90342 20.8895 7.93418C21.0191 8.05553 21.1126 8.03866 21.1719 7.95895C21.197 7.92463 21.0715 7.65785 21.1565 7.80273C21.1623 7.81249 21.2035 7.96377 21.2178 7.97661C21.2501 8.00542 21.28 7.96595 21.2998 7.97244C21.3381 7.98569 21.3426 7.98251 21.3721 7.97458C21.4128 7.96503 21.4843 8.0232 21.5154 7.97544C21.5219 7.9648 21.4592 7.81656 21.465 7.78586C21.4708 7.75518 21.5133 7.75537 21.5381 7.78696C21.563 7.81858 21.5974 7.94005 21.6088 7.96672C21.7047 8.19195 21.642 7.85664 21.645 7.84681C21.7036 7.6772 21.8533 7.83022 21.9503 7.7973C22.0239 7.77191 22.0827 7.68531 22.1557 7.67017C22.2429 7.65272 22.3413 7.71157 22.4179 7.6703C22.426 7.66612 22.3563 7.49049 22.3661 7.48502C22.4705 7.42709 22.5876 7.40975 22.7387 7.49364C22.7539 7.50221 22.7919 7.66413 22.8103 7.68209C22.9213 7.78857 23.1323 8.06295 22.9446 7.36529C22.9996 7.37666 23.0647 7.38562 23.1519 7.50981C23.208 7.58972 23.2393 7.76952 23.2476 7.68559C23.2495 7.66686 23.19 7.52013 23.1967 7.50338C23.2249 7.433 23.2919 7.46481 23.312 7.37203C23.316 7.3528 23.2687 7.21932 23.2633 7.19424C23.2203 6.99091 23.3653 7.30241 23.3812 7.32325C23.5012 7.47822 23.5231 7.39419 23.5819 7.37936C23.5956 7.376 23.5197 7.20079 23.5307 7.19108C23.5884 7.14309 23.6624 7.13567 23.7541 7.19407C23.7746 7.2075 23.8126 7.36564 23.825 7.37992C23.8792 7.44101 23.7892 7.14844 23.8393 7.20143C23.8498 7.21223 23.8902 7.34497 23.8961 7.35905C23.9893 7.58004 23.8975 7.25351 23.8996 7.24491C23.9245 7.12887 24.0729 7.45224 24.1124 7.3863C24.117 7.37807 24.0466 7.21655 24.0629 7.2036C24.1715 7.11636 24.3177 7.11844 24.4847 7.21075C24.5106 7.22488 24.5386 7.35449 24.545 7.36951C24.6448 7.6039 24.5499 7.2769 24.5521 7.26267C24.5719 7.15882 24.7079 7.41425 24.6131 7.01869C24.8652 7.0829 25 6.79811 25.3207 7.07391C25.3247 7.07703 25.373 7.23756 25.3806 7.2431C25.4733 7.31139 25.3788 7.06835 25.3197 6.7523C25.3049 6.67293 25.4584 7.02712 25.4702 7.05293C25.5133 7.14805 25.5814 7.38811 25.5912 7.40604C25.6697 7.54641 25.4044 6.76581 25.4427 6.75275C25.4443 6.75365 25.4873 6.8993 25.4953 6.91254C25.5203 6.95414 25.5111 6.89362 25.5375 6.93991C25.5981 7.0471 25.7328 7.42449 25.6933 7.19188C25.6881 7.16172 25.5336 6.72026 25.5749 6.72978C25.5915 6.73396 25.6495 6.70617 25.6761 6.72927C25.7026 6.75234 25.7386 6.89919 25.7419 6.90497C25.8506 7.07881 25.8594 7.16293 25.9755 7.43521C26.0913 7.70642 25.8633 7.04348 25.8479 6.96614C25.8326 6.889 25.9181 7.03383 25.9444 7.08531C25.9707 7.13682 25.9907 7.23108 26.0082 7.25935C26.1236 7.44376 25.9195 6.92214 25.9003 6.81126C25.8547 6.54877 26.0484 7.0322 26.099 7.06904C26.1127 7.07898 26.0676 6.96919 26.0724 6.95591C26.0919 6.90483 26.163 7.05213 26.1534 6.89854C26.1519 6.87351 26.0833 6.56689 26.1754 6.77797C26.1887 6.80843 26.2218 6.93396 26.245 6.95682C26.2797 6.99116 26.3264 7.00544 26.3352 6.95685C26.3417 6.92091 26.2552 6.72474 26.297 6.78068C26.3157 6.80567 26.338 6.92989 26.3697 6.96696C26.4014 7.00405 26.4441 6.98403 26.4597 6.97431C26.4751 6.9645 26.4147 6.81396 26.4126 6.80315C26.4011 6.74112 26.4088 6.65624 26.4117 6.65547C26.5499 6.58859 26.7694 6.80316 26.8814 6.67059C26.8903 6.66041 26.8289 6.50086 26.8297 6.49764C26.8449 6.41718 26.9586 6.85782 27.0331 6.99319C26.9197 6.66572 26.9551 6.72005 26.9697 6.67513C26.9766 6.65322 26.9272 6.52825 26.9241 6.51483C26.8786 6.31516 26.9751 6.56047 26.9955 6.61042C27.0708 6.79414 27.0105 6.56753 27.0609 6.69029C27.111 6.8121 27.1529 7.00349 27.1776 6.99262C27.1456 6.87255 27.0241 6.57134 27.0269 6.51505C27.0371 6.30216 27.254 6.49797 27.3211 6.50344C27.3881 6.50894 27.3998 6.48091 27.4482 6.51205C27.5356 6.56837 27.4369 6.34775 27.4404 6.23053C27.4441 6.11329 27.6125 6.68091 27.6582 6.79975C27.7039 6.91857 27.6684 6.79242 27.6973 6.85649C27.7261 6.92054 27.7389 7.00745 27.763 7.02708C27.7871 7.04667 27.7588 6.81764 27.7224 6.68958C27.6452 6.41829 27.5321 6.14421 27.6069 6.22884C27.6112 6.23389 27.6526 6.38411 27.6668 6.39595C27.778 6.48517 27.8564 6.46685 27.9631 6.54297C27.9778 6.55367 28.0236 6.72089 28.0328 6.72897C28.1288 6.81368 28.0147 6.54406 27.9456 6.22533C28.0745 6.63716 28.1765 6.88144 28.2235 6.86843C28.2519 6.86075 28.1875 6.68357 28.1635 6.55157C28.1563 6.51179 28.2169 6.62798 28.1924 6.54271C28.1126 6.26396 27.9915 5.96248 28.0801 6.06908C28.0841 6.07421 28.1276 6.22687 28.1378 6.23357C28.2045 6.27762 28.1143 5.98828 28.1532 5.93662C28.1837 5.8961 28.3126 6.04791 28.3672 6.06138C28.5197 6.52191 28.5272 6.40232 28.4387 6.07925C28.4723 6.08249 28.4979 6.05401 28.5409 6.08844C28.5556 6.10014 28.5936 6.23552 28.5996 6.24951C28.6937 6.46908 28.6036 6.15613 28.6058 6.14192C28.6351 6.00144 28.7689 6.21682 28.7581 5.96637C28.7577 5.95736 28.6549 5.63643 28.7501 5.86402C28.7566 5.87974 28.7835 6.03238 28.818 6.03338C28.8525 6.0344 28.9676 6.18645 28.9609 6.02408C28.9594 5.98498 28.899 5.71675 28.9876 5.91252C28.9996 5.93913 29.0271 6.03183 29.0481 6.0815C29.1153 6.23973 29.0147 5.91424 29.1216 6.18363C29.2284 6.45301 29.3288 6.64796 29.3087 6.44422C29.3082 6.43826 29.2331 6.17877 29.248 6.1783C29.2718 6.17778 29.3203 6.2209 29.3423 6.21171C29.3528 6.20722 29.2929 6.0505 29.2938 6.04697C29.3368 5.93364 29.4357 6.05817 29.5341 6.09375C29.5522 6.10059 29.521 5.87007 29.6057 6.03231C29.6986 6.20988 29.9276 7.00098 29.9354 6.79174C29.9387 6.70797 29.6442 5.70563 29.8658 6.20195C29.9214 6.04213 30.0996 6.27455 30.1373 6.06023C30.1391 6.05071 30.0609 5.76962 30.0726 5.76992C30.09 5.77089 30.1416 5.89727 30.1554 5.90211C30.2145 5.92565 30.2199 5.80103 30.2702 5.80339C30.2891 5.80401 30.3278 5.93957 30.3504 5.94032C30.373 5.94095 30.3278 5.76056 30.3834 5.83642C30.4256 5.89432 30.566 6.24702 30.6074 6.27981C30.4902 5.92479 30.5114 5.92583 30.5136 5.82107C30.514 5.80077 30.466 5.67962 30.464 5.66365C30.4552 5.5959 30.5007 5.6944 30.4893 5.62123C30.4867 5.60365 30.4464 5.48248 30.4419 5.46126C30.4023 5.27627 30.5258 5.53783 30.5473 5.5834C30.6288 5.75639 30.5864 5.5955 30.6265 5.66095C30.6667 5.72639 30.6716 5.82328 30.7052 5.85991C30.7747 5.93565 30.8195 5.899 30.8619 5.89106C30.8785 5.88715 30.8136 5.72914 30.8147 5.72483C30.8345 5.67268 30.9256 5.83339 30.8369 5.50515C31.1376 6.33015 30.8301 5.41767 30.9334 5.56844C30.9417 5.58066 31.0777 5.97285 31.0826 6.03548C31.0873 6.09806 31.0244 5.98227 31.0344 6.07907C31.0367 6.1018 31.1325 6.47987 31.1362 6.50346C31.1654 6.68785 30.9651 6.10076 30.9528 6.06895C30.8191 5.72596 30.9184 6.13457 30.9188 6.16496C30.9207 6.30417 30.8591 6.23275 30.8555 6.33376C30.8529 6.39912 30.9793 6.7853 30.9581 6.77924C30.888 6.7593 30.6888 6.22822 30.7903 6.71243C30.8119 6.81572 30.9638 7.23319 30.812 6.91571C30.8024 6.89569 30.6706 6.60288 30.7168 6.80049C30.7226 6.8254 30.7636 6.94816 30.7641 6.95946C30.7666 7.03274 30.7209 6.93931 30.715 6.99332C30.7091 7.04732 30.7066 7.12577 30.6682 7.09229C30.6451 7.07232 30.5499 6.84987 30.5242 6.79623C30.4504 6.64154 30.5172 6.91321 30.4397 6.72196C30.3618 6.52976 30.2868 6.22344 30.2118 6.10747C30.3169 6.42687 30.4232 6.75522 30.5282 7.07668C30.4528 7.08934 30.3478 7.00971 30.2806 7.04778C30.2723 7.05282 30.3386 7.22127 30.3313 7.23109C30.3 7.27178 30.224 7.16127 30.1984 7.2239C30.1788 7.27304 30.2038 7.46645 30.1852 7.52348C30.0429 7.16535 30.0339 7.30601 29.9863 7.28482C29.9697 7.27756 29.938 7.17978 29.9183 7.15101C29.8448 7.04481 29.9684 7.36202 29.9759 7.41592C30.0078 7.64602 29.761 6.91706 29.7194 6.95095C29.7171 6.9525 29.816 7.35195 29.8199 7.3776C29.8456 7.54462 29.7703 7.24363 29.7438 7.22049C29.6955 7.17821 29.6431 7.0924 29.645 7.21844C29.6457 7.25572 29.7012 7.50672 29.6182 7.32591C29.6074 7.30224 29.566 7.17311 29.5613 7.1663C29.4802 7.05379 29.6139 7.45834 29.6371 7.6027C29.6603 7.74704 29.5327 7.47955 29.4988 7.40148C29.411 7.19959 29.4833 7.30787 29.4775 7.28712C29.4083 7.04025 29.397 7.0905 29.3708 7.0764C29.2359 6.68101 29.2169 6.71379 29.3442 7.06338C29.3582 7.10155 29.3609 7.05959 29.3708 7.0764C29.4835 7.4709 29.4704 7.53058 29.3165 7.17813C29.2445 7.01293 29.1928 6.80953 29.1704 6.89769C29.1602 6.93753 29.2593 7.2077 29.2654 7.28832C29.2794 7.47227 29.1392 7.23617 29.1086 7.29092C29.0975 7.3108 29.1628 7.455 29.157 7.47373C29.1415 7.52391 29.0787 7.42033 29.0688 7.48742C29.0679 7.49369 29.1265 7.64792 29.1181 7.65292C29.0557 7.6939 28.9627 7.61362 28.8903 7.63468C28.8553 7.64492 28.8223 7.75174 28.7807 7.74633C28.709 7.73788 28.5569 7.53592 28.5223 7.60882C28.4995 7.6557 28.5592 7.80957 28.5799 7.92107C28.6202 8.13715 28.4463 7.78401 28.4204 7.72899C28.4196 7.72716 28.437 7.68038 28.3944 7.60539C28.3294 7.44117 28.4205 7.72815 28.4204 7.72899C28.4036 7.69347 28.3324 7.67776 28.3305 7.71159C28.3296 7.73007 28.3825 7.87705 28.3811 7.88388C28.3459 8.04297 28.2788 8.10715 28.1752 8.06471C28.1728 8.06219 28.1197 7.89573 28.1147 7.89188C28.0435 7.83372 28.0812 8.04644 28.0828 8.17964C28.0845 8.31279 28.0406 8.28266 27.923 8.0057C27.9059 8.0512 27.8223 7.93928 27.7729 7.87094C27.7235 7.80259 27.8277 8.12635 27.8277 8.13343C27.83 8.35949 27.7305 8.18749 27.6527 8.18148C27.6155 8.17807 27.5668 8.24631 27.5434 8.2933C27.5251 8.33097 27.4832 8.26093 27.4737 8.3178C27.4724 8.32541 27.5238 8.4679 27.5246 8.47378C27.5533 8.65517 27.45 8.29941 27.4232 8.23865C27.3258 8.01768 27.2722 7.9006 27.2714 8.02008C27.2711 8.04746 27.4151 8.56131 27.4096 8.596C27.4021 8.64018 27.3493 8.45642 27.343 8.5073C27.3424 8.51148 27.38 8.62318 27.3655 8.62255C27.2984 8.62111 27.2114 8.57782 27.1528 8.60978C27.1447 8.61372 27.2147 8.78745 27.2039 8.79605C27.1533 8.8363 27.0879 8.8508 27.004 8.78651C26.9832 8.77013 26.9505 8.64306 26.9352 8.60718C26.8424 8.39022 26.9243 8.7231 26.922 8.73071C26.8711 8.92078 26.6946 8.65365 26.6363 8.82827C26.6333 8.83837 26.7052 9.20053 26.5862 8.90902C26.5783 8.88964 26.4573 8.59118 26.5096 8.80537C26.5129 8.81877 26.5773 8.97172 26.5509 8.96275C26.5245 8.95382 26.5255 9.06996 26.439 8.90714C26.4117 8.85587 26.2886 8.55892 26.3421 8.81051C26.3459 8.82803 26.4864 9.39037 26.3452 9.01713C26.322 8.95568 26.1912 8.55453 26.2269 8.77066C26.2339 8.81253 26.275 8.89804 26.2772 8.95927C26.2806 9.0536 26.2115 8.95751 26.24 9.14616C26.2451 9.17953 26.3126 9.45888 26.2255 9.25881C26.2118 9.22748 26.1727 9.09201 26.158 9.0803C26.0878 9.024 26.0691 9.12956 25.9912 9.05277C25.9637 9.02583 25.9003 8.80695 25.8636 8.75484C25.8269 8.70276 25.7734 8.65874 25.7881 8.76353C25.8029 8.86835 25.9375 9.20606 25.9194 9.24268C25.8409 9.4018 25.6564 9.23889 25.5283 9.24874C25.5093 9.25017 25.5649 9.36854 25.5399 9.37949C25.4477 9.4204 25.3217 9.59073 25.1518 9.35647C25.0157 9.16885 25.0458 8.98144 24.9668 8.91297C24.9288 8.88041 25.0358 9.28952 25.0341 9.30409C25.0192 9.4513 24.9201 9.28731 24.8864 9.35899C24.8794 9.37384 24.944 9.53259 24.9375 9.54345C24.9158 9.58195 24.8589 9.52043 24.8336 9.54359C24.8224 9.55435 24.8661 9.67745 24.8507 9.67198C24.8141 9.66031 24.7708 9.61687 24.7035 9.51027C24.6973 9.50056 24.6636 9.34054 24.6399 9.34205C24.6018 9.34493 24.52 9.2449 24.5189 9.37671C24.5188 9.4163 24.6127 9.69967 24.5217 9.51268C24.5027 9.47364 24.3963 9.13126 24.4641 9.43512C24.4754 9.48563 24.557 9.8988 24.447 9.65158C24.4181 9.58652 24.3086 9.31379 24.3088 9.36234C24.3092 9.36997 24.3677 9.51948 24.3607 9.53831C24.3351 9.60201 24.2855 9.6005 24.258 9.66259C24.2508 9.67947 24.3205 9.83114 24.3081 9.85127C24.2739 9.90686 24.2014 9.88651 24.1386 9.85268C24.1154 9.83991 24.0837 9.70557 24.0777 9.6918C23.9808 9.46765 24.0728 9.78314 24.0722 9.80352C24.0672 9.92605 23.987 9.79018 23.9619 9.84159C23.9548 9.85538 24.0118 10.0014 24.0141 10.0154C24.0355 10.152 23.9628 9.87988 23.9392 9.85505C23.8731 9.78459 23.8342 9.81081 23.8016 9.84275C23.7898 9.8547 23.8632 10.0216 23.8519 10.0303C23.7859 10.0853 23.7016 10.0951 23.5959 10.0248C23.5759 10.0113 23.5405 9.87569 23.5275 9.84637C23.4368 9.64109 23.5038 9.93997 23.5063 9.96976C23.5175 10.1057 23.4665 9.99241 23.4467 10.0233C23.3505 10.1765 23.1611 10.1533 23.0201 10.147C22.8367 10.1395 22.6682 10.0554 22.5238 10.14C22.5145 10.1452 22.5833 10.3183 22.5761 10.3251C22.4804 10.4042 22.3492 10.3713 22.2561 10.459C22.2484 10.4659 22.3172 10.6288 22.3066 10.6455C22.2853 10.6808 22.2446 10.6843 22.1968 10.6409C22.1735 10.62 22.1453 10.47 22.1229 10.4519C22.0706 10.4096 22.0298 10.4099 22.0034 10.4485C21.9923 10.4653 22.072 10.6288 22.0531 10.6373C21.9257 10.6986 21.8049 10.7716 21.5966 10.5949C21.5823 10.5828 21.4583 10.2378 21.4609 10.311C21.4916 10.408 21.5295 10.5214 21.5633 10.6248C21.3881 10.7449 21.1562 10.6883 20.9557 10.7344C20.9473 10.7364 21.0228 10.9159 21.0068 10.9206C20.9141 10.9485 20.842 11.0292 20.6871 10.8774C20.6719 10.8626 20.5686 10.5369 20.5575 10.5951C20.5557 10.6056 20.5287 10.6626 20.5415 10.7366C20.5436 10.7477 20.6015 10.8964 20.5897 10.9053C20.5199 10.954 20.4273 10.9465 20.3192 10.8799C20.3017 10.8688 20.2613 10.7033 20.2483 10.694C20.1568 10.6295 20.1291 10.7748 20.0201 10.6486C19.947 10.5636 19.8691 10.2801 19.7563 10.0131C19.7404 9.97547 19.7134 9.97766 19.659 9.81861C19.522 9.41868 19.3877 8.97552 19.2403 8.54971C19.2086 8.45799 19.2082 8.5683 19.1538 8.3392C19.1502 8.32385 19.1499 8.24193 19.1307 8.16446C19.1174 8.11089 19.0559 7.95119 19.0421 7.88157C19.0283 7.812 19.083 7.94486 19.0709 7.86169C19.0584 7.77755 18.9908 7.59509 19.0115 7.5639ZM27.5513 7.56572C27.4775 7.41817 27.6634 7.98676 27.6421 7.84299C27.6409 7.83536 27.555 7.57294 27.5513 7.56572ZM30.2056 6.58151C30.0931 6.34087 30.196 6.71554 30.2808 6.90203C30.3657 7.08832 30.2397 6.65444 30.2056 6.58151ZM30.4454 6.29853C30.3457 6.11248 30.6086 6.91899 30.5907 6.74421C30.5897 6.73431 30.4512 6.30933 30.4454 6.29853ZM19.8296 9.90198C19.8268 9.89455 19.8064 9.89318 19.8085 9.9008C19.859 10.0842 19.8997 10.0868 19.8296 9.90198ZM30.6775 6.00011C30.6307 5.89478 30.6421 6.0306 30.7003 6.16158C30.7472 6.26695 30.7358 6.13113 30.6775 6.00011ZM26.1922 7.34574C26.1891 7.3374 26.1737 7.33407 26.1899 7.38179C26.242 7.53546 26.2455 7.48604 26.1922 7.34574ZM31.1817 5.8218C31.0966 5.81648 30.8296 5.16687 30.9362 5.21469C30.9555 5.22333 30.975 5.43729 31.0138 5.49095C31.0846 5.58866 30.9684 5.16366 31.078 5.37561C31.098 5.41443 31.187 5.82358 31.1818 5.82277C31.1818 5.82245 31.1817 5.82212 31.1817 5.8218ZM27.3114 6.88834C27.3084 6.88098 27.2883 6.8798 27.2903 6.88738C27.3407 7.07076 27.3814 7.07325 27.3114 6.88834ZM25.3248 7.24497C25.3185 7.2293 25.2722 7.22812 25.2757 7.2433C25.3524 7.5451 25.4463 7.54837 25.3248 7.24497ZM28.372 6.07342C28.331 5.8857 28.3472 5.85661 28.4385 6.07905C28.4152 6.0734 28.3952 6.0781 28.372 6.07342Z" fill="var(--stroke-0, black)"/>
</g>
</svg>
