<svg preserveAspectRatio="none" width="100%" height="100%" overflow="visible" style="display: block;" viewBox="0 0 41 41" fill="none" xmlns="http://www.w3.org/2000/svg">
<g id="bxs:chat">
<path id="Vector" d="M6.83333 30.75H10.25V37.7217L18.9642 30.75H27.3333C29.2176 30.75 30.75 29.2176 30.75 27.3333V13.6667C30.75 11.7824 29.2176 10.25 27.3333 10.25H6.83333C4.94904 10.25 3.41667 11.7824 3.41667 13.6667V27.3333C3.41667 29.2176 4.94904 30.75 6.83333 30.75Z" fill="var(--fill-0, white)"/>
<path id="Vector_2" d="M34.1667 3.41667H13.6667C11.7824 3.41667 10.25 4.94904 10.25 6.83333H30.75C32.6343 6.83333 34.1667 8.36571 34.1667 10.25V23.9167C36.051 23.9167 37.5833 22.3843 37.5833 20.5V6.83333C37.5833 4.94904 36.051 3.41667 34.1667 3.41667Z" fill="var(--fill-0, white)"/>
</g>
</svg>
