<svg preserveAspectRatio="none" width="100%" height="100%" overflow="visible" style="display: block;" viewBox="0 0 14 13" fill="none" xmlns="http://www.w3.org/2000/svg">
<g id="material-symbols:check-rounded">
<path id="Vector" d="M4.85625 9.425L12.2719 1.55536C12.4469 1.36964 12.651 1.27679 12.8844 1.27679C13.1177 1.27679 13.3219 1.36964 13.4969 1.55536C13.6719 1.74107 13.7594 1.96176 13.7594 2.21743C13.7594 2.4731 13.6719 2.69348 13.4969 2.87857L5.46875 11.4214C5.29375 11.6071 5.08958 11.7 4.85625 11.7C4.62292 11.7 4.41875 11.6071 4.24375 11.4214L0.48125 7.42857C0.30625 7.24286 0.22225 7.02248 0.22925 6.76743C0.23625 6.51238 0.327541 6.29169 0.503125 6.10536C0.678708 5.91902 0.886667 5.82617 1.127 5.82678C1.36733 5.8274 1.575 5.92026 1.75 6.10536L4.85625 9.425Z" fill="var(--fill-0, white)"/>
</g>
</svg>
