<svg preserveAspectRatio="none" width="100%" height="100%" overflow="visible" style="display: block;" viewBox="0 0 17 17" fill="none" xmlns="http://www.w3.org/2000/svg">
<g id="fluent:clothes-hanger-12-regular">
<path id="Vector" d="M8.49858 4.25C8.37425 4.25 8.2521 4.28273 8.14443 4.3449C8.03675 4.40707 7.94733 4.49649 7.88517 4.60417C7.79057 4.76553 7.63599 4.88293 7.45515 4.93074C7.27432 4.97854 7.08191 4.95289 6.91992 4.85936C6.75794 4.76584 6.63952 4.61203 6.59051 4.43152C6.5415 4.25101 6.56588 4.05844 6.65833 3.89583C6.80974 3.63431 7.01518 3.40808 7.26096 3.23225C7.50673 3.05642 7.78718 2.93503 8.08358 2.87618C8.37999 2.81734 8.68554 2.82239 8.97984 2.891C9.27414 2.95961 9.55043 3.0902 9.79025 3.27406C10.0301 3.45791 10.2279 3.69081 10.3706 3.9572C10.5133 4.22359 10.5975 4.51734 10.6177 4.81886C10.6378 5.12038 10.5934 5.42273 10.4874 5.70573C10.3814 5.98873 10.2163 6.24588 10.0031 6.46L9.82458 6.63567C9.67042 6.77741 9.52695 6.93035 9.39533 7.09325C9.24233 7.28875 9.20692 7.40917 9.20692 7.48992C9.20692 7.63725 9.28767 7.77325 9.41658 7.84408L14.6455 10.7497C14.9986 10.9458 15.2765 11.2537 15.4357 11.6249C15.5948 11.9962 15.6262 12.4098 15.5249 12.8008C15.4236 13.1918 15.1953 13.538 14.8759 13.7853C14.5565 14.0325 14.164 14.1666 13.7601 14.1667H3.23992C2.83588 14.167 2.4432 14.033 2.12354 13.7859C1.80388 13.5388 1.57535 13.1925 1.47385 12.8014C1.37235 12.4104 1.40363 11.9966 1.56277 11.6253C1.72192 11.2539 1.99991 10.9459 2.35308 10.7497L6.03075 8.70258C6.11205 8.65738 6.20146 8.62862 6.29387 8.61797C6.38628 8.60731 6.47988 8.61497 6.56934 8.64049C6.65879 8.66601 6.74234 8.7089 6.81522 8.76671C6.8881 8.82452 6.94888 8.89612 6.99408 8.97742C7.03929 9.05872 7.06804 9.14812 7.0787 9.24053C7.08935 9.33294 7.0817 9.42655 7.05618 9.516C7.03066 9.60546 6.98777 9.68901 6.92996 9.76189C6.87215 9.83476 6.80055 9.89554 6.71925 9.94075L3.043 11.9878C2.96411 12.0316 2.902 12.1003 2.86646 12.1832C2.83092 12.2661 2.82396 12.3585 2.84667 12.4458C2.86939 12.5331 2.9205 12.6104 2.99194 12.6654C3.06339 12.7205 3.15113 12.7503 3.24133 12.75H13.7601C13.8503 12.7503 13.938 12.7205 14.0095 12.6654C14.0809 12.6104 14.132 12.5331 14.1547 12.4458C14.1775 12.3585 14.1705 12.2661 14.135 12.1832C14.0994 12.1003 14.0373 12.0316 13.9584 11.9878L8.72667 9.08367C8.44326 8.92506 8.20724 8.69379 8.0429 8.41367C7.87856 8.13354 7.79184 7.81469 7.79167 7.48992C7.79167 6.95442 8.03958 6.528 8.28042 6.22058C8.46458 5.984 8.69692 5.75733 8.87683 5.58167L9.0015 5.45842C9.10033 5.35928 9.16757 5.23307 9.19473 5.09574C9.22188 4.95842 9.20774 4.81612 9.15408 4.68682C9.10042 4.55753 9.00966 4.44703 8.89324 4.36928C8.77683 4.29154 8.63857 4.25003 8.49858 4.25Z" fill="var(--fill-0, black)"/>
</g>
</svg>
