<svg preserveAspectRatio="none" width="100%" height="100%" overflow="visible" style="display: block;" viewBox="0 0 13 12" fill="none" xmlns="http://www.w3.org/2000/svg">
<g id="maki:cross" clip-path="url(#clip0_959_5826)">
<path id="Vector" d="M3.15467 1.96733L6.5 5.31267L9.828 1.98467C9.90151 1.90642 9.99007 1.84383 10.0884 1.80064C10.1866 1.75745 10.2926 1.73456 10.4 1.73333C10.6299 1.73333 10.8503 1.82464 11.0128 1.98717C11.1754 2.14971 11.2667 2.37015 11.2667 2.6C11.2687 2.70626 11.249 2.8118 11.2087 2.91016C11.1685 3.00853 11.1086 3.09763 11.0327 3.172L7.66133 6.5L11.0327 9.87133C11.1755 10.0111 11.2593 10.2003 11.2667 10.4C11.2667 10.6299 11.1754 10.8503 11.0128 11.0128C10.8503 11.1754 10.6299 11.2667 10.4 11.2667C10.2895 11.2712 10.1793 11.2528 10.0764 11.2125C9.97346 11.1722 9.88001 11.111 9.802 11.0327L6.5 7.68733L3.16333 11.024C3.0901 11.0996 3.00262 11.16 2.90594 11.2017C2.80925 11.2433 2.70527 11.2654 2.6 11.2667C2.37015 11.2667 2.14971 11.1754 1.98717 11.0128C1.82464 10.8503 1.73333 10.6299 1.73333 10.4C1.73131 10.2937 1.75103 10.1882 1.79127 10.0898C1.8315 9.99147 1.89142 9.90237 1.96733 9.828L5.33867 6.5L1.96733 3.12867C1.82449 2.98892 1.74073 2.79969 1.73333 2.6C1.73333 2.37015 1.82464 2.14971 1.98717 1.98717C2.14971 1.82464 2.37015 1.73333 2.6 1.73333C2.808 1.73593 3.00733 1.82 3.15467 1.96733Z" fill="var(--fill-0, white)"/>
</g>
<defs>
<clipPath id="clip0_959_5826">
<rect width="13" height="11.375" fill="white"/>
</clipPath>
</defs>
</svg>
