<svg preserveAspectRatio="none" width="100%" height="100%" overflow="visible" style="display: block;" viewBox="0 0 11 14" fill="none" xmlns="http://www.w3.org/2000/svg">
<g id="Frame">
<g clip-path="url(#clip0_959_5833)">
<path id="Vector" d="M7.4375 10.5C7.7 9.62773 8.24414 8.88398 8.78281 8.14297C8.925 7.94883 9.06719 7.75469 9.20391 7.55781C9.74531 6.77852 10.0625 5.83516 10.0625 4.81523C10.0625 2.15469 7.90781 0 5.25 0C2.59219 0 0.4375 2.15469 0.4375 4.8125C0.4375 5.83242 0.754688 6.77852 1.29609 7.55508C1.43281 7.75195 1.575 7.94609 1.71719 8.14023C2.25859 8.88125 2.80273 9.62773 3.0625 10.4973H7.4375V10.5ZM5.25 14C6.45859 14 7.4375 13.0211 7.4375 11.8125V11.375H3.0625V11.8125C3.0625 13.0211 4.04141 14 5.25 14ZM3.0625 4.8125C3.0625 5.05313 2.86563 5.25 2.625 5.25C2.38437 5.25 2.1875 5.05313 2.1875 4.8125C2.1875 3.11992 3.55742 1.75 5.25 1.75C5.49063 1.75 5.6875 1.94687 5.6875 2.1875C5.6875 2.42813 5.49063 2.625 5.25 2.625C4.04141 2.625 3.0625 3.60391 3.0625 4.8125Z" fill="var(--fill-0, white)"/>
</g>
</g>
<defs>
<clipPath id="clip0_959_5833">
<path d="M0 0H10.5V14H0V0Z" fill="white"/>
</clipPath>
</defs>
</svg>
