<svg preserveAspectRatio="none" width="100%" height="100%" overflow="visible" style="display: block;" viewBox="0 0 23 23" fill="none" xmlns="http://www.w3.org/2000/svg">
<g id="ic:outline-tips-and-updates" clip-path="url(#clip0_959_5813)">
<path id="Vector" d="M6.70833 19.1667H10.5417C10.5417 20.2208 9.67917 21.0833 8.625 21.0833C7.57083 21.0833 6.70833 20.2208 6.70833 19.1667ZM4.79167 18.2083H12.4583V16.2917H4.79167V18.2083ZM15.8125 9.10417C15.8125 12.765 13.2633 14.72 12.1996 15.3333H5.05042C3.98667 14.72 1.4375 12.765 1.4375 9.10417C1.4375 5.13667 4.6575 1.91667 8.625 1.91667C12.5925 1.91667 15.8125 5.13667 15.8125 9.10417ZM13.8958 9.10417C13.8958 6.20042 11.5288 3.83333 8.625 3.83333C5.72125 3.83333 3.35417 6.20042 3.35417 9.10417C3.35417 11.4712 4.78208 12.8321 5.60625 13.4167H11.6437C12.4679 12.8321 13.8958 11.4712 13.8958 9.10417ZM20.4796 7.06292L19.1667 7.66667L20.4796 8.27042L21.0833 9.58333L21.6871 8.27042L23 7.66667L21.6871 7.06292L21.0833 5.75L20.4796 7.06292ZM18.2083 5.75L19.1092 3.77583L21.0833 2.875L19.1092 1.97417L18.2083 3.22566e-07L17.3075 1.97417L15.3333 2.875L17.3075 3.77583L18.2083 5.75Z" fill="var(--fill-0, #4B5563)"/>
</g>
<defs>
<clipPath id="clip0_959_5813">
<rect width="23" height="23" fill="white"/>
</clipPath>
</defs>
</svg>
