<svg preserveAspectRatio="none" width="100%" height="100%" overflow="visible" style="display: block;" viewBox="0 0 73 90" fill="none" xmlns="http://www.w3.org/2000/svg">
<g id="streamline:arrow-up-1">
<path id="Vector" d="M40.4587 8.86338C40.3665 9.04163 40.1966 9.28682 40.0122 9.52838C39.8616 9.71993 39.6825 9.92701 39.5103 10.1163C39.4021 10.2359 39.3588 10.1097 39.2789 10.1917C39.1085 10.3738 39.0806 10.5107 38.9277 10.6541C38.8784 10.6986 38.7819 10.5395 38.7333 10.5885C38.4727 10.8505 38.2779 11.2299 38.0499 11.5193C36.8542 13.0601 35.8571 14.5752 34.7852 16.2674C34.4545 16.7869 33.936 17.3873 33.6595 18.0178C33.6274 18.0913 33.7793 18.1218 33.7824 18.141C33.8285 18.4397 33.6064 18.2272 33.5005 18.3359C33.082 18.7664 32.751 19.342 32.5227 19.8853C32.426 20.1169 32.8026 20.0349 32.5386 20.1789C32.5205 20.1891 32.4127 20.059 32.3654 20.1117C32.258 20.2323 32.1436 20.5061 32.0804 20.5988C31.9541 20.784 31.9382 20.8175 31.8375 21.0046C31.6987 21.2598 31.4679 21.5333 31.3531 21.8323C31.329 21.8964 31.5128 21.8903 31.4874 21.999C31.4618 22.1076 31.3179 22.3576 31.2397 22.4274C31.1615 22.4971 31.0682 22.4027 31.0346 22.4049C30.7527 22.4199 30.8989 22.8782 30.8902 22.914C30.6758 23.6529 30.21 24.1589 29.8891 24.8203C29.642 25.3308 29.4532 25.8741 29.2233 26.3433C28.9496 26.9007 28.6477 27.348 28.4075 27.9155C28.382 27.9753 28.5852 27.9836 28.5545 28.0568C28.2361 28.8156 27.8896 29.5536 27.4454 30.2708C27.4008 30.3426 27.2906 30.1786 27.2369 30.2465C26.9084 30.6689 26.3008 31.2802 26.8551 31.8318C26.6997 32.1373 26.5172 32.5126 26.2683 32.7457C26.1079 32.8962 26.0114 32.6498 25.9928 32.906C25.9885 32.9638 26.1619 32.9549 26.1443 33.037C26.0709 33.3808 25.882 33.7258 25.8382 34.0689C25.8294 34.1396 25.9684 34.1724 25.9853 34.1998C26.1196 34.4268 25.7035 34.5623 25.6591 34.6101C25.3252 34.9728 25.2772 35.3132 25.1269 35.7143C25.0919 35.8074 25.3108 35.7617 25.2836 35.8535C25.1412 36.3274 24.9522 36.8137 24.7168 37.238C24.6637 37.3331 24.5426 37.1871 24.5094 37.2299C24.3648 37.4198 24.6383 37.5661 24.5061 37.7503C24.4786 37.7894 24.3554 37.7205 24.3383 37.7236C24.0698 37.7713 24.3548 37.9874 24.3512 38.0216C24.3134 38.4575 23.8923 38.6066 23.813 39.0165C23.8039 39.0655 24.0051 39.013 23.9694 39.1475C23.7315 40.0484 23.4056 40.957 23.019 41.8003C22.9592 41.9313 22.8602 41.7975 22.8422 41.8016C22.5578 41.873 22.8595 42.057 22.8593 42.105C22.849 42.4822 22.4832 42.7387 22.8098 43.0848C22.2728 44.541 22.1367 46.0911 21.4735 47.5187C21.4655 47.5371 21.3084 47.469 21.293 47.5058C21.1071 47.9484 21.3806 47.912 21.6336 48.2767C21.6972 48.3681 21.2749 48.5288 21.2433 48.5446C21.1269 48.6008 20.8968 48.4761 20.8723 48.4977C20.6774 48.6789 21.494 48.7963 21.4429 49.0768C21.4399 49.0854 21.2974 49.0212 21.2782 49.0421C21.2182 49.1071 21.2644 49.1907 21.2001 49.2535C21.0519 49.3967 20.6466 49.387 20.8327 49.6801C20.8571 49.7172 21.326 49.7476 21.2618 49.9954C21.2355 50.0942 21.1711 50.5399 21.122 50.6599C21.0726 50.7798 20.9371 50.671 20.9292 50.6789C20.6801 50.9852 20.6183 50.845 20.3008 50.9708C19.9846 51.0979 20.6852 51.1537 20.7524 51.2339C20.8193 51.3142 20.621 51.5379 20.5559 51.5911C20.4907 51.6441 20.4065 51.5547 20.3669 51.6045C20.1073 51.936 20.6897 51.8101 20.7837 51.9432C21.0072 52.2556 20.4638 52.404 20.3815 52.6546C20.3593 52.7222 20.4838 52.6801 20.4872 52.743C20.4996 52.9918 20.3211 53.121 20.4379 53.4159C20.4568 53.4645 20.7432 53.7217 20.5002 53.843C20.4651 53.8602 20.3423 53.7882 20.3027 53.8896C20.2432 54.0411 20.1876 54.3199 20.2155 54.4916C20.2361 54.6183 20.4616 54.4959 20.3815 54.6454C20.3458 54.7119 20.2329 54.5725 20.1763 54.6986C20.1196 54.8242 20.0975 55.1562 20.0923 55.2826C20.087 55.4088 20.2538 55.3523 20.2639 55.3633C20.3213 55.4295 20.3816 55.6755 20.3801 55.6966C20.3247 56.7668 20.0106 57.7531 20.0886 58.8033C20.0946 58.8856 20.266 58.8326 20.2686 58.8451C20.3377 59.1262 19.8855 58.9008 19.7322 59.0974C20.0789 59.0708 20.0152 59.1867 20.0533 59.3849C20.072 59.4804 20.2061 59.4282 20.2199 59.4369C20.4239 59.578 20.1614 59.6775 20.1077 59.7036C19.9103 59.7993 20.1454 59.8997 20.0138 59.9652C19.8833 60.0311 19.6865 59.8853 19.6916 60.0774C19.8164 60.1292 20.1384 59.9829 20.1931 60.1266C20.3976 60.6668 20.1831 61.6864 20.1852 62.1263C20.185 62.5638 20.2189 62.7022 20.1935 62.9604C20.1495 63.4267 20.3758 63.2387 20.5104 63.5123C20.6462 63.7858 20.0445 63.7037 19.9216 63.7567C19.7989 63.8095 19.9335 63.8413 19.8689 63.8987C19.8043 63.956 19.7074 63.855 19.6931 63.9766C19.6786 64.0988 19.9383 64.4 20.0754 64.4265C20.3654 64.4833 20.6425 64.3062 20.5749 64.6265C20.5709 64.645 20.4096 64.6053 20.402 64.6754C20.3469 65.2319 20.4171 65.795 20.3986 66.3528C20.3959 66.4296 20.2143 66.3902 20.2108 66.4354C20.1755 66.9065 20.4374 66.6977 20.7989 66.8877C20.3644 66.9062 20.1268 67.0884 20.1879 67.4338C20.2249 67.641 20.4035 67.5705 20.5594 67.6779C20.6063 67.71 20.5079 67.88 20.6002 67.889C20.9017 67.9185 21.1916 67.7196 21.1361 68.0915C21.1333 68.108 20.9679 68.0917 20.9695 68.1463C20.9797 68.5003 21.2846 68.4772 21.4029 68.8328C21.4956 69.1117 21.4391 69.6599 21.4958 69.9919C21.0243 70.1073 21.2141 70.3899 21.571 70.4246C21.6153 70.6379 21.6978 70.8585 21.713 71.0734C21.7184 71.1474 21.5702 71.1415 21.5582 71.1546C21.37 71.3576 21.7096 71.3558 21.7353 71.3968C22.0022 71.8467 21.8986 72.3234 22.285 72.7012C22.2989 72.7148 22.6258 72.6294 22.4366 72.8324C22.4235 72.8461 22.2254 72.7462 22.2904 72.9651C22.3549 73.1832 22.3354 73.6526 22.597 73.8933C22.66 73.952 22.9849 74.0312 22.8447 74.2551C22.8256 74.2852 22.7274 74.3001 22.6888 74.3482C22.5666 74.5032 22.9019 74.4236 22.678 74.6398C22.4542 74.8558 22.3482 75.1662 22.6622 75.3872C22.6718 75.3946 22.9499 75.3572 22.9872 75.4522C23.0463 75.6034 23.0887 75.8339 23.1613 75.9864C23.196 76.0592 23.3264 75.9419 23.3351 75.9533C23.6479 76.4025 23.6816 76.8123 23.8929 77.3626C23.9315 77.4642 24.2764 77.6287 24.2169 77.8971C24.1534 78.1929 23.315 78.3799 23.7497 78.7567C23.9285 78.9142 24.9588 78.614 24.6859 79.2128C25.1754 79.7713 25.3115 80.498 25.8937 81.0095C25.9198 81.0327 26.2198 80.9545 26.2612 81.021C26.3224 81.1203 26.2479 81.2511 26.2889 81.3248C26.4572 81.6337 26.732 81.8127 26.9162 82.0885C26.9863 82.1927 26.8473 82.2425 26.9321 82.3671C27.0173 82.4918 27.225 82.4579 27.2798 82.6738C27.3208 82.837 27.1203 83.1945 27.2172 83.3854C27.5135 83.1571 27.5961 83.2729 27.8331 83.4052C27.8787 83.4305 27.946 83.3075 27.9727 83.3152C28.0836 83.3441 28.0559 83.4794 28.1688 83.5005C28.1961 83.5058 28.2945 83.4245 28.3223 83.424C28.5615 83.4168 28.5027 83.7897 28.4932 83.8551C28.4561 84.1028 28.6332 84.053 28.6585 84.1951C28.6823 84.3353 28.4924 84.2612 28.5521 84.3975C28.6765 84.6805 28.9484 84.9494 29.1509 85.1748C29.2323 85.2642 29.3004 85.0875 29.315 85.0976C29.516 85.2494 29.5612 85.5585 29.9018 85.4221C29.3935 86.1584 30.0672 85.4716 30.1941 85.8492C30.2039 85.8791 29.9358 86.1983 29.8148 86.163C29.6938 86.1275 29.6694 85.9179 29.4955 85.875C29.4546 85.8651 29.0306 85.9856 28.9938 85.9809C28.7063 85.9465 29.1361 85.4974 29.153 85.4658C29.3307 85.1187 28.8557 85.223 28.7894 85.1934C28.4876 85.0615 28.3821 84.8132 28.1459 84.6884C27.9908 84.6047 27.6712 84.8563 27.5923 84.7464C27.3286 84.3774 27.6667 83.8983 27.0227 83.8887C26.8852 83.8858 26.5957 84.2349 26.6648 83.7644C26.6687 83.7343 26.7707 83.3503 26.5279 83.3679C26.4972 83.3701 26.3958 83.4504 26.3731 83.4392C26.2235 83.3622 26.2427 83.2186 26.1028 83.1172C25.9629 83.0157 25.7838 82.9005 25.7067 82.7227C25.6599 82.6155 25.7688 82.3559 25.7851 82.2779C25.8333 82.0551 25.5139 82.0879 25.6251 81.8888C25.7381 81.6902 26.1027 81.6615 26.0674 81.3795C25.787 81.5653 25.4921 81.746 25.2064 81.9275C24.8918 81.458 24.6773 80.9398 24.3672 80.4775C24.3285 80.4203 24.2134 80.5766 24.1678 80.5175C23.9761 80.2666 23.9436 79.9667 23.7346 79.7158C23.5719 79.521 23.2708 79.3834 23.0967 79.1729C23.351 78.8416 23.0468 78.5618 22.9437 78.2925C22.9075 78.1985 23.0015 78.1563 22.9981 78.0781C22.9841 77.7847 22.7408 78.0525 22.6593 78.012C22.3111 77.8352 22.984 77.4615 22.8051 77.1441C22.796 77.1277 22.323 77.0943 22.2856 77.0751C22.0446 76.9587 22.399 76.9819 22.37 76.8512C22.3176 76.6125 22.337 76.4231 22.1127 76.2203C22.0467 76.1614 21.7338 76.0892 21.8499 75.8614C21.8651 75.8317 21.9939 75.7879 21.9944 75.7692C21.9941 75.4376 21.6005 75.5989 21.3986 75.4928C21.1967 75.3861 21.3653 75.0222 21.4237 74.9402C21.5732 74.7252 21.5517 75.0065 21.5748 75.0055C21.8462 74.9922 21.7311 74.8286 21.6959 74.6825C22.0754 74.5068 21.9764 74.3255 21.6581 74.5318C21.6235 74.5547 21.7025 74.6478 21.6959 74.6825C21.2671 74.7147 21.1314 74.515 21.3992 74.1423C21.5252 73.9681 21.7593 73.9982 21.5636 73.6923C21.4754 73.553 21.2269 73.7107 21.104 73.6024C20.8229 73.353 20.9373 72.8628 20.7917 72.5543C20.7386 72.4419 20.6264 72.6052 20.585 72.5297C20.4746 72.329 20.5275 72.1046 20.4036 71.9074C20.3922 71.8895 20.2493 71.9858 20.2267 71.9191C20.0526 71.4139 20.0273 70.9391 19.8896 70.4031C19.8226 70.1442 19.6192 69.7017 19.5744 69.4264C19.4936 68.949 19.6063 68.3229 19.4718 67.9338C19.3847 67.6791 19.234 67.7671 19.1023 67.6747C18.8468 67.4951 19.1633 67.0388 19.2146 66.978C19.2162 66.9762 19.2935 67.1958 19.3561 67.0608C19.5178 66.961 19.2158 66.9805 19.2146 66.978C19.2466 66.9373 19.2096 66.4791 19.1652 66.394C19.1406 66.3477 18.9905 66.3989 18.9806 66.3743C18.7487 65.7875 18.6282 65.1773 18.6322 64.5481C18.6342 64.5369 18.8096 64.5341 18.812 64.508C18.8502 64.1419 18.6154 63.9345 18.462 63.6477C18.309 63.3613 18.3328 63.119 18.6189 62.9214C18.5645 62.7001 18.676 62.3715 18.7458 62.1833C18.8156 61.9953 18.4749 61.988 18.4673 61.972C18.2261 61.4752 18.4087 61.1709 18.4247 60.6442C18.4327 60.3934 18.3755 59.8972 18.3374 59.6253C18.3065 59.4101 18.3863 59.2819 18.3363 59.0846C18.3296 59.0579 18.178 59.084 18.1723 59.0758C17.9925 58.8537 18.3621 58.9627 18.4285 58.9178C18.6705 58.7555 18.7994 58.6574 18.6914 58.3755C18.6667 58.311 18.1379 58.1101 18.11 57.9897C18.0746 57.8338 18.2639 57.8976 18.2225 57.7345C18.2192 57.7206 18.1012 57.7198 18.1097 57.6199C18.1475 57.1561 18.2394 56.6539 18.2564 56.1719C18.2592 56.106 18.0674 56.1793 18.0685 56.0836C18.0734 55.636 18.1162 55.1481 18.2403 54.7225C18.2714 54.6178 18.3961 54.6958 18.4368 54.676C18.6832 54.5551 18.3611 54.3245 18.3577 54.2903C18.2684 53.4825 18.643 52.9093 18.599 52.0922C18.5958 52.0481 18.277 51.6627 18.6091 51.5552C18.6313 51.5476 18.9699 51.4443 18.7709 51.2832C18.7584 51.2731 18.5814 51.3422 18.6211 51.1835C18.6607 51.0251 18.5895 50.7492 18.8032 50.5557C18.8706 50.4941 19.2126 50.3795 18.9934 50.1318C18.9776 50.1162 18.4596 49.7005 18.8724 49.6507C18.9403 49.6429 19.3528 49.7321 19.1815 49.4489C19.1483 49.3945 19.0408 49.4646 19.0043 49.3299C18.9479 49.1229 19.1037 48.8901 18.9616 48.6217C18.9362 48.5751 18.6867 48.348 18.9266 48.2478C18.9642 48.2322 19.0949 48.2997 19.1242 48.2289C19.2644 47.8929 19.2437 47.5085 19.4115 47.1736C19.4707 47.0551 19.6807 47.1648 19.7672 47.0471C19.8538 46.9292 19.9661 46.6802 19.8936 46.5226C19.821 46.3648 19.4341 46.4374 19.4499 46.2266C19.52 45.309 19.9353 44.4761 20.1878 43.607C20.2254 43.4779 20.0719 43.5538 20.1187 43.3611C20.2879 42.653 20.5071 41.3958 20.9502 40.8654C21.3039 40.4411 21.2874 41.099 21.4818 40.754C21.5751 40.588 21.2279 40.2753 21.2281 40.2281C21.2248 39.7675 21.4924 39.5316 21.5555 39.1361C21.5686 39.054 21.3813 39.0801 21.3943 39.0107C21.4375 38.7732 21.5863 38.5567 21.6427 38.3353C21.6677 38.2358 21.5376 38.2137 21.5761 38.1271C21.667 37.9195 21.7812 37.7471 21.9661 37.5778C21.9829 37.5624 22.0951 37.7408 22.1529 37.5853C22.2461 37.3334 22.4662 37.0574 22.4475 36.7265C22.4415 36.6281 22.1602 36.5276 22.4191 36.4092C22.4733 36.3843 22.7948 36.551 22.5768 36.2343C22.5399 36.183 22.274 35.6774 22.5919 35.5873C22.6755 35.5635 22.9947 35.5413 22.9884 35.4219C22.9865 35.4053 22.8153 35.4079 22.8315 35.3163C22.8911 34.9944 23.0226 34.6826 23.0898 34.3553C23.1075 34.2677 22.9063 34.3337 22.9377 34.2049C23.0239 33.8505 23.2223 33.4433 23.3965 33.1337C23.4609 33.0197 23.5573 33.1525 23.5746 33.149C23.8559 33.095 23.5815 32.894 23.5823 32.8386C23.5901 32.5001 23.822 32.3309 23.8911 32.0446C23.9106 31.9657 23.744 31.9612 23.7369 31.9412C23.6714 31.7362 23.8872 31.955 23.9547 31.8686C24.1449 31.6274 24.255 31.3196 24.3479 31.0382C24.3818 30.9347 24.1676 30.9794 24.2 30.8873C24.3892 30.3398 24.6326 29.8008 24.95 29.3101C25.0096 29.2189 25.1119 29.3358 25.15 29.3277C25.4156 29.2739 25.224 28.9479 25.2178 28.8888C25.189 28.6205 25.3388 28.5859 25.4 28.3873C25.6938 27.4227 26.2864 26.3109 26.7362 25.4693C27.3128 24.3901 27.8641 23.5569 28.3551 22.4945C28.3865 22.4271 28.1866 22.4111 28.2116 22.3519C28.5334 21.6074 28.9918 20.8708 29.3282 20.1123C29.3563 20.0499 29.1544 20.0554 29.1943 19.9524C29.275 19.7404 29.4156 19.4944 29.5704 19.323C29.6456 19.2393 29.7105 19.4395 29.7834 19.354C29.9489 19.1633 30.1037 18.9007 30.2067 18.6502C30.251 18.542 30.009 18.6108 30.0789 18.4768C30.5538 17.5603 30.9882 16.7122 31.7127 15.91C31.7614 15.8567 32.1104 15.9845 32.1227 15.8212C32.0399 15.7611 31.9357 15.7023 31.8437 15.6441C32.5076 14.3647 33.3539 13.1828 34.1697 11.8932C34.2028 11.841 33.9815 11.8301 34.0445 11.7287C34.3902 11.1724 34.7428 10.5079 35.2742 10.0344C35.3267 9.98728 35.5964 10.1995 35.6594 10.0054C35.667 9.97587 35.7987 9.68682 35.7871 9.5682C35.7841 9.55228 35.6171 9.51692 35.6717 9.42395C35.9975 8.87613 36.3169 8.45643 36.7609 7.96884C36.8271 7.89886 36.9118 8.07733 36.9601 8.02863C37.2695 7.72871 37.5193 7.13423 37.8641 6.91012C38.1621 6.66513 38.3209 6.95052 38.648 6.98802C38.6943 6.99307 38.7836 6.87843 38.9539 6.92961C39.3199 7.14454 39.6132 7.53004 40.0149 7.74302C40.0598 7.76359 40.1138 7.68512 40.1337 7.68387C40.1535 7.68258 40.1817 7.69907 40.2665 7.78195C40.299 7.76312 40.2044 8.02904 40.2711 8.07301C40.3018 8.12476 40.467 8.18742 40.4952 8.2694C40.5224 8.35264 40.37 8.31989 40.3718 8.4614C40.381 8.59427 40.5337 8.71505 40.4587 8.86338ZM19.0643 61.3412C19.2208 61.1661 18.6221 61.1631 18.7724 61.3418C18.7803 61.3504 19.0567 61.3502 19.0643 61.3412ZM25.061 80.6941C25.1606 80.3646 24.753 80.4468 24.6669 80.6897C24.5823 80.9338 25.0316 80.7951 25.061 80.6941ZM26.5377 82.459C26.5516 82.1309 25.846 82.6036 26.1499 82.7233C26.1674 82.7304 26.5371 82.4783 26.5377 82.459ZM38.2864 7.64991C38.2947 7.65178 38.3738 7.55093 38.3685 7.5448C38.251 7.38069 38.0931 7.58226 38.2864 7.64991ZM28.1237 84.0949C28.1578 83.9588 27.9063 83.867 27.8626 84.036C27.8277 84.1726 28.0816 84.265 28.1237 84.0949ZM20.0909 52.6258C20.1 52.6243 20.1199 52.5294 20.0697 52.5251C19.9078 52.5115 19.9367 52.6509 20.0909 52.6258ZM30.7751 86.8614C30.3769 86.4385 30.6282 85.7004 31.0126 86.1846C31.0832 86.2726 30.6841 86.178 30.7425 86.3223C30.8516 86.5876 31.28 86.3878 31.3144 86.7424C31.3208 86.8078 30.7969 86.8873 30.7736 86.8614C30.7741 86.8614 30.7746 86.8614 30.7751 86.8614ZM19.7784 61.2161C19.7862 61.2125 19.7887 61.0786 19.7808 61.0757C19.5883 61.0098 19.5831 61.2806 19.7784 61.2161ZM21.3857 47.1369C21.4036 47.1331 21.4832 46.8342 21.4703 46.8211C21.2003 46.5975 21.0377 47.2045 21.3857 47.1369ZM21.4846 70.0003C21.7059 70.0913 21.7718 70.2494 21.571 70.4239C21.5453 70.2823 21.5098 70.1425 21.4846 70.0003ZM41.2026 6.49823C41.2787 6.553 41.2625 6.66832 41.2181 6.76794C41.2045 6.79908 41.1009 6.82474 41.087 6.84791C41.0599 6.89317 41.1194 6.90361 41.0848 6.95128C41.0729 6.96726 40.9109 7.01364 40.902 7.02905C40.8542 7.11305 40.9148 7.15286 40.9034 7.22409C40.8469 7.57507 40.8944 7.88144 40.9324 8.20099C40.9451 8.30631 40.8464 8.47712 40.9462 8.55341C40.958 8.56227 41.0934 8.50359 41.1056 8.50154C41.2928 8.47099 41.0098 8.56389 40.9813 8.60044C40.8688 8.74522 40.8936 8.85006 40.9794 8.91669C41.0162 8.94489 41.2765 8.80519 41.1366 8.89997C41.1271 8.90644 40.9771 8.95203 40.9652 8.968C40.9387 9.00409 40.9811 9.03774 40.9762 9.05986C40.9659 9.10275 40.9695 9.10786 40.98 9.14086C40.993 9.18645 40.9399 9.2664 40.9909 9.30143C41.0022 9.30874 41.1474 9.23901 41.179 9.24559C41.2106 9.2522 41.2139 9.29977 41.1839 9.32748C41.1539 9.35519 41.0335 9.39331 41.0074 9.40601C40.7868 9.51266 41.1218 9.44356 41.132 9.447C41.3089 9.51316 41.1659 9.68032 41.2073 9.78915C41.2391 9.87162 41.3318 9.93781 41.3532 10.0196C41.378 10.1173 41.3264 10.2273 41.3746 10.3132C41.3795 10.3224 41.5519 10.2449 41.5583 10.2559C41.6256 10.373 41.6528 10.5042 41.5801 10.6732C41.5727 10.6902 41.4116 10.7322 41.3949 10.7527C41.296 10.8767 41.035 11.1121 41.7273 10.9043C41.7202 10.9658 41.7165 11.0387 41.5977 11.1359C41.5212 11.1986 41.3414 11.233 41.4272 11.2425C41.4464 11.2448 41.5904 11.1786 41.6079 11.1861C41.6816 11.2179 41.6548 11.2929 41.7506 11.3158C41.7704 11.3203 41.902 11.2677 41.927 11.2617C42.1297 11.2142 41.8256 11.3756 41.8058 11.3934C41.6584 11.5273 41.7455 11.5521 41.7653 11.618C41.7699 11.6333 41.9414 11.5489 41.9521 11.5613C42.0056 11.6261 42.0192 11.709 41.9675 11.8115C41.9555 11.8345 41.7982 11.8764 41.7848 11.8903C41.7273 11.9508 42.0166 11.851 41.967 11.907C41.9569 11.9186 41.8256 11.9634 41.8118 11.97C41.5953 12.0737 41.9189 11.9719 41.9279 11.9743C42.0476 12.0026 41.7318 12.1678 41.8019 12.2122C41.8106 12.2174 41.9687 12.139 41.9832 12.1574C42.0806 12.2793 42.0905 12.443 42.0106 12.6298C41.9984 12.6587 41.8692 12.6897 41.8545 12.6968C41.6249 12.8078 41.9488 12.7026 41.9635 12.7051C42.0704 12.7277 41.8225 12.8792 42.216 12.7743C42.1715 13.0564 42.4715 13.2083 42.2181 13.5666C42.2153 13.5711 42.0564 13.6246 42.0514 13.6332C41.9897 13.7367 42.2285 13.6318 42.5443 13.5666C42.6236 13.5503 42.2769 13.721 42.2517 13.7341C42.1587 13.7821 41.9208 13.8576 41.9034 13.8686C41.7675 13.9559 42.5375 13.6614 42.5539 13.7044C42.5531 13.7062 42.4089 13.7538 42.3961 13.7627C42.356 13.7906 42.4166 13.7805 42.3718 13.8099C42.2681 13.8775 41.8963 14.027 42.1291 13.9836C42.1592 13.9779 42.5943 13.8063 42.5881 13.8525C42.5852 13.8711 42.6182 13.9362 42.5969 13.9658C42.5757 13.9955 42.4297 14.0353 42.4241 14.039C42.2567 14.1601 42.1721 14.1697 41.9054 14.2989C41.6398 14.4277 42.2936 14.1745 42.3708 14.1575C42.4477 14.1406 42.3079 14.2359 42.2578 14.2651C42.2077 14.2944 42.1137 14.3166 42.0865 14.3361C41.9089 14.4647 42.4213 14.2378 42.5322 14.2167C42.7947 14.1665 42.3202 14.3818 42.287 14.4384C42.278 14.4537 42.3857 14.4036 42.3996 14.409C42.453 14.431 42.3094 14.5102 42.4644 14.4999C42.4897 14.4983 42.7951 14.4225 42.5885 14.525C42.5587 14.5397 42.4341 14.5764 42.4128 14.6023C42.3809 14.641 42.3702 14.6933 42.4202 14.7034C42.4572 14.7107 42.6491 14.6145 42.5958 14.6612C42.572 14.682 42.4478 14.7065 42.4128 14.742C42.3778 14.7773 42.4016 14.8252 42.4127 14.8427C42.424 14.8601 42.5717 14.7929 42.5825 14.7906C42.6445 14.7779 42.7312 14.7868 42.7322 14.7901C42.8114 14.945 42.6118 15.1901 42.7555 15.3161C42.7665 15.326 42.9233 15.2579 42.9267 15.2588C43.0095 15.276 42.5719 15.402 42.4407 15.4849C42.7636 15.359 42.7114 15.3985 42.7581 15.415C42.7809 15.4228 42.9036 15.3679 42.917 15.3644C43.1158 15.3142 42.8749 15.4214 42.8259 15.4441C42.6457 15.5278 42.8706 15.461 42.7503 15.5171C42.6308 15.5728 42.4401 15.6191 42.4532 15.6468C42.5723 15.6113 42.8679 15.4763 42.9252 15.4796C43.142 15.4918 42.9612 15.734 42.9612 15.8092C42.9611 15.8842 42.9905 15.8974 42.9629 15.9515C42.9129 16.0491 43.1286 15.9394 43.2478 15.9437C43.367 15.9482 42.8051 16.1349 42.6883 16.1858C42.5715 16.2365 42.6966 16.1972 42.634 16.2293C42.5713 16.2614 42.4842 16.2754 42.4663 16.3023C42.4484 16.3293 42.6784 16.2984 42.8053 16.258C43.0742 16.1724 43.3429 16.0467 43.2632 16.1302C43.2585 16.135 43.1095 16.1809 43.0986 16.1967C43.0173 16.3209 43.0423 16.4089 42.9738 16.5281C42.9642 16.5446 42.7983 16.5952 42.7909 16.6055C42.7128 16.7127 42.977 16.5859 43.2946 16.5095C42.8874 16.6526 42.648 16.7659 42.6651 16.8187C42.6752 16.8505 42.8497 16.779 42.9816 16.7526C43.0213 16.7446 42.9085 16.8121 42.9929 16.785C43.2692 16.6965 43.565 16.5618 43.4642 16.6607C43.4593 16.6652 43.308 16.7134 43.3021 16.7248C43.2629 16.7993 43.5489 16.6993 43.6045 16.743C43.6482 16.7774 43.5048 16.9212 43.4956 16.9824C43.0409 17.1516 43.1629 17.1604 43.4833 17.0623C43.4828 17.1 43.5138 17.1288 43.4824 17.1767C43.4717 17.1932 43.3375 17.2353 43.3238 17.242C43.1088 17.3467 43.4189 17.2468 43.4335 17.2494C43.5784 17.2826 43.3709 17.4318 43.6241 17.4205C43.6332 17.42 43.9503 17.306 43.7272 17.4119C43.7118 17.4191 43.5592 17.4487 43.561 17.4874C43.5628 17.526 43.418 17.6544 43.5822 17.6475C43.6217 17.6459 43.8889 17.5792 43.6976 17.6777C43.6716 17.691 43.5798 17.7215 43.5311 17.7449C43.3761 17.8197 43.6981 17.7081 43.4336 17.8269C43.1691 17.9456 42.9796 18.0574 43.1846 18.0356C43.1906 18.0351 43.4477 17.9518 43.4494 17.9685C43.4518 17.9952 43.4121 18.0493 43.4232 18.074C43.4286 18.0858 43.5827 18.0192 43.5863 18.0202C43.7048 18.0687 43.5866 18.1792 43.5586 18.2892C43.5532 18.3095 43.7845 18.2753 43.6268 18.3697C43.4544 18.4731 42.6707 18.727 42.8836 18.7364C42.9688 18.7404 43.9614 18.4138 43.4761 18.6604C43.6428 18.7232 43.4217 18.922 43.6422 18.965C43.652 18.967 43.9307 18.8804 43.9314 18.8934C43.9318 18.913 43.8079 18.9703 43.8041 18.9858C43.7851 19.052 43.9119 19.0584 43.9137 19.1147C43.9146 19.1359 43.7803 19.1787 43.7814 19.2041C43.7826 19.2294 43.9618 19.1793 43.8895 19.2414C43.8342 19.2884 43.488 19.4446 43.4581 19.4908C43.8086 19.3607 43.8093 19.3845 43.9157 19.3873C43.9364 19.3878 44.0553 19.3344 44.0714 19.3322C44.1393 19.3226 44.0432 19.3732 44.1165 19.3608C44.1341 19.3578 44.2537 19.3132 44.2748 19.3082C44.4592 19.2645 44.2041 19.4019 44.1596 19.4258C43.9908 19.5165 44.1505 19.4695 44.0874 19.5143C44.0244 19.559 43.9265 19.5642 43.8921 19.6017C43.821 19.6794 43.8618 19.7296 43.8734 19.7771C43.8787 19.7958 44.0336 19.7236 44.0381 19.7249C44.0926 19.7472 43.9371 19.8488 44.2628 19.7504C43.4506 20.0845 44.351 19.7431 44.2065 19.8584C44.1948 19.8676 43.8081 20.0186 43.745 20.0238C43.6819 20.029 43.7942 19.9589 43.6968 19.9697C43.6739 19.9722 43.2983 20.0783 43.2747 20.0824C43.09 20.1144 43.6691 19.8921 43.7004 19.8784C44.0373 19.7298 43.631 19.8396 43.6002 19.8399C43.4591 19.8416 43.5265 19.7728 43.4238 19.7685C43.3572 19.7654 42.9759 19.9056 42.9803 19.882C42.9948 19.8034 43.5171 19.5821 43.0343 19.6942C42.9313 19.718 42.5203 19.8868 42.8298 19.7178C42.8494 19.7072 43.1356 19.5606 42.9389 19.6116C42.9141 19.618 42.793 19.6635 42.7815 19.664C42.7074 19.6666 42.7984 19.6157 42.7432 19.6089C42.6879 19.6022 42.6081 19.5991 42.6389 19.5562C42.6573 19.5304 42.8751 19.4245 42.9274 19.3959C43.0783 19.3138 42.8082 19.3876 42.9958 19.3015C43.1844 19.2149 43.4889 19.1319 43.6004 19.0483C43.285 19.1649 42.9607 19.2829 42.6432 19.3994C42.6242 19.3149 42.6964 19.1976 42.6522 19.1222C42.6464 19.1129 42.481 19.1866 42.4704 19.1783C42.4266 19.1432 42.5324 19.0585 42.4668 19.0296C42.4153 19.0074 42.2212 19.0348 42.1618 19.0138C42.5134 18.8555 42.37 18.845 42.3876 18.7918C42.3936 18.7732 42.4902 18.7381 42.5177 18.7161C42.6194 18.6341 42.3078 18.7715 42.2537 18.7797C42.0229 18.8146 42.7421 18.5406 42.7043 18.494C42.7026 18.4914 42.3055 18.6009 42.2798 18.6051C42.1125 18.6333 42.4116 18.5499 42.4329 18.5204C42.4718 18.4664 42.5546 18.408 42.4268 18.4097C42.3891 18.4103 42.139 18.4717 42.3156 18.3794C42.3388 18.3673 42.4663 18.3213 42.4729 18.3161C42.5803 18.2257 42.1809 18.3741 42.0364 18.3996C41.8919 18.4251 42.1528 18.283 42.2292 18.2454C42.4268 18.1477 42.3229 18.2283 42.3434 18.2219C42.5882 18.1451 42.5363 18.1323 42.5484 18.1031C42.9384 17.9533 42.9036 17.9319 42.5594 18.0734C42.5219 18.0889 42.5646 18.092 42.5484 18.1031C42.1575 18.2279 42.0959 18.2131 42.4408 18.0419C42.6024 17.9617 42.8045 17.9045 42.7132 17.8792C42.672 17.8676 42.4061 17.9777 42.3248 17.9843C42.1393 17.9994 42.3673 17.8431 42.3092 17.8087C42.2882 17.7962 42.1473 17.8688 42.1278 17.8622C42.0756 17.8448 42.1755 17.7747 42.1066 17.7634C42.1002 17.7624 41.9486 17.8275 41.9428 17.8181C41.8961 17.748 41.9699 17.6441 41.9426 17.5629C41.9293 17.5237 41.8183 17.4864 41.8203 17.4399C41.823 17.3595 42.0154 17.1899 41.9386 17.1509C41.8892 17.1252 41.738 17.1916 41.6266 17.2144C41.4107 17.2588 41.7546 17.0652 41.8083 17.0364C41.8101 17.0354 41.859 17.0551 41.9316 17.0076C42.0928 16.9354 41.8092 17.0365 41.8083 17.0364C41.843 17.0177 41.853 16.9379 41.8186 16.9358C41.7998 16.9346 41.655 16.9935 41.648 16.9918C41.4837 16.9518 41.4131 16.8765 41.4476 16.7606C41.45 16.7579 41.6145 16.699 41.618 16.6934C41.6711 16.6138 41.4584 16.6554 41.3234 16.6568C41.1885 16.6582 41.2155 16.6091 41.4867 16.4782C41.4392 16.459 41.5458 16.3657 41.6111 16.3106C41.6764 16.2555 41.3565 16.3712 41.3493 16.3712C41.1202 16.373 41.2865 16.262 41.2862 16.1749C41.2866 16.1333 41.2134 16.0785 41.1638 16.0522C41.1241 16.0316 41.1917 15.9849 41.1332 15.9741C41.1254 15.9726 40.9851 16.0296 40.9792 16.0305C40.7975 16.0621 41.1499 15.9475 41.2094 15.9177C41.4255 15.8094 41.5399 15.7497 41.4186 15.7484C41.3908 15.748 40.8814 15.9076 40.8457 15.9013C40.8003 15.8928 40.9824 15.8342 40.9303 15.827C40.926 15.8263 40.8157 15.8681 40.8152 15.8518C40.8111 15.7767 40.8479 15.6793 40.8107 15.6136C40.806 15.6045 40.6355 15.6824 40.6259 15.6703C40.5809 15.6134 40.5608 15.5401 40.6192 15.4464C40.6341 15.4231 40.7603 15.3869 40.7954 15.3698C41.0079 15.2666 40.6769 15.3573 40.669 15.3547C40.472 15.297 40.7285 15.1002 40.5466 15.0343C40.5361 15.0309 40.1746 15.1103 40.4606 14.978C40.4796 14.9692 40.7724 14.8346 40.5594 14.8925C40.5461 14.8962 40.3962 14.9678 40.4031 14.9382C40.41 14.9087 40.2923 14.9094 40.4504 14.8131C40.5001 14.7827 40.7912 14.6458 40.5404 14.7049C40.523 14.7091 39.9641 14.8646 40.3311 14.7077C40.3915 14.6819 40.7877 14.5367 40.5714 14.576C40.5295 14.5837 40.4461 14.6295 40.3842 14.6317C40.2888 14.6352 40.3806 14.5581 40.1915 14.5894C40.1581 14.595 39.8803 14.6697 40.0761 14.5727C40.1067 14.5576 40.2409 14.5143 40.2516 14.4978C40.303 14.4193 40.1943 14.398 40.2658 14.3111C40.2909 14.2804 40.5077 14.21 40.5576 14.1691C40.6074 14.1282 40.6476 14.0684 40.5426 14.0846C40.4374 14.1007 40.1059 14.2504 40.0673 14.23C39.8994 14.1416 40.0495 13.9354 40.029 13.7919C40.026 13.7706 39.9105 13.8325 39.8973 13.8044C39.8482 13.701 39.6651 13.5594 39.8888 13.3698C40.0679 13.218 40.2605 13.2524 40.3235 13.1641C40.3534 13.1216 39.9472 13.2401 39.9322 13.2382C39.7817 13.221 39.9399 13.1105 39.8644 13.0725C39.8488 13.0647 39.693 13.1365 39.6815 13.1292C39.6406 13.1047 39.6984 13.0412 39.6728 13.0128C39.661 13.0002 39.5397 13.0488 39.544 13.0315C39.5528 12.9906 39.5933 12.9422 39.6959 12.8672C39.7053 12.8603 39.8648 12.823 39.8613 12.7965C39.8553 12.7538 39.95 12.6625 39.8162 12.6609C39.7761 12.6606 39.4963 12.7649 39.6785 12.6636C39.7166 12.6424 40.0551 12.5243 39.7525 12.5993C39.7022 12.6117 39.2897 12.7018 39.5315 12.5794C39.5951 12.5472 39.8628 12.4256 39.8135 12.4256C39.8058 12.426 39.659 12.491 39.6393 12.4831C39.5726 12.4542 39.57 12.3987 39.5048 12.3677C39.4871 12.3596 39.339 12.4371 39.3175 12.4231C39.2583 12.3847 39.273 12.3035 39.3022 12.2333C39.3132 12.2073 39.4469 12.1723 39.4604 12.1657C39.6798 12.0579 39.3673 12.1599 39.3466 12.1592C39.2219 12.1531 39.3531 12.0637 39.2989 12.0354C39.2843 12.0274 39.1408 12.0907 39.1269 12.0933C38.99 12.1169 39.2601 12.0363 39.2834 12.01C39.3494 11.9361 39.3196 11.8925 39.2845 11.8559C39.2714 11.8426 39.1082 11.9243 39.0984 11.9116C39.0372 11.8375 39.0203 11.743 39.083 11.6249C39.0951 11.6025 39.2297 11.5633 39.2583 11.5488C39.4591 11.448 39.1614 11.522 39.1314 11.5247C38.9944 11.5368 39.1052 11.48 39.0722 11.4577C38.9089 11.3496 38.9169 11.1375 38.9117 10.9796C38.9042 10.7741 38.9756 10.5857 38.878 10.4236C38.872 10.4133 38.702 10.4897 38.6946 10.4816C38.6064 10.3742 38.629 10.2274 38.5324 10.1228C38.5248 10.1141 38.3652 10.1906 38.3474 10.1787C38.3098 10.1548 38.3029 10.1091 38.343 10.0557C38.3622 10.0297 38.5122 9.99866 38.5286 9.9736C38.5673 9.91515 38.5636 9.86942 38.5223 9.83975C38.5043 9.82726 38.345 9.91597 38.3349 9.8948C38.2622 9.7519 38.1782 9.61628 38.3403 9.38357C38.3515 9.3676 38.6913 9.22989 38.6172 9.23259C38.5213 9.26663 38.4093 9.30872 38.3073 9.34616C38.171 9.14954 38.2094 8.88999 38.1462 8.66531C38.1435 8.65585 37.9676 8.73988 37.9614 8.72192C37.9256 8.61802 37.8377 8.53699 37.979 8.364C37.9928 8.34693 38.3147 8.23238 38.2548 8.21974C38.2439 8.21762 38.1839 8.18727 38.1099 8.20131C38.0988 8.20361 37.9527 8.26804 37.9428 8.25473C37.8875 8.17644 37.8875 8.07271 37.9463 7.95188C37.9561 7.93227 38.1207 7.88756 38.129 7.87307C38.1869 7.77079 38.0372 7.73925 38.1563 7.61763C38.2366 7.53601 38.5177 7.44971 38.7793 7.32428C38.8161 7.30658 38.8117 7.27633 38.9686 7.21588C39.363 7.0638 39.8015 6.91488 40.2214 6.75117C40.3118 6.71593 40.1999 6.71515 40.4278 6.65502C40.4431 6.65106 40.5261 6.65091 40.6031 6.62967C40.6564 6.61502 40.8133 6.54662 40.8828 6.53141C40.9523 6.51623 40.822 6.57697 40.9054 6.56369C40.9897 6.55005 41.1692 6.47486 41.2026 6.49823ZM41.9025 16.0635C42.0461 15.9813 41.4846 16.1876 41.6287 16.1642C41.6363 16.1629 41.8955 16.0676 41.9025 16.0635ZM43.119 19.0397C43.3539 18.9146 42.9823 19.0285 42.8001 19.123C42.6181 19.2173 43.0478 19.0777 43.119 19.0397ZM43.4258 19.3093C43.6063 19.1983 42.8098 19.49 42.9856 19.4705C42.9956 19.4695 43.4153 19.3157 43.4258 19.3093ZM38.898 7.40676C38.9053 7.40363 38.9051 7.3808 38.8975 7.38308C38.7156 7.43905 38.7163 7.48466 38.898 7.40676ZM43.7476 19.5703C43.8506 19.5181 43.7137 19.5305 43.5857 19.5953C43.4826 19.6475 43.6195 19.6352 43.7476 19.5703ZM42.014 14.5419C42.0222 14.5384 42.0243 14.5211 41.9772 14.5391C41.8256 14.5971 41.876 14.6011 42.014 14.5419ZM43.9699 20.1355C43.9683 20.0403 44.6053 19.7434 44.5656 19.8627C44.5584 19.8843 44.343 19.9054 44.2917 19.9487C44.1984 20.0277 44.62 19.8989 44.414 20.021C44.3763 20.0433 43.9685 20.1415 43.9689 20.1357C43.9693 20.1357 43.9696 20.1356 43.9699 20.1355ZM42.5699 15.797C42.5772 15.7937 42.5767 15.7711 42.5692 15.7734C42.3873 15.8292 42.3881 15.8748 42.5699 15.797ZM42.0449 13.5706C42.0603 13.5636 42.0577 13.5118 42.0426 13.5157C41.7427 13.6005 41.7471 13.7057 42.0449 13.5706ZM43.4838 16.9877C43.6708 16.9424 43.7016 16.9606 43.4835 17.0622C43.4873 17.036 43.4809 17.0136 43.4838 16.9877ZM24.1472 10.0332C24.2129 9.95635 24.3382 9.97329 24.4443 10.0185C24.4775 10.0325 24.498 10.1374 24.5224 10.1516C24.5701 10.1791 24.5859 10.119 24.6357 10.1542C24.6524 10.1664 24.6913 10.3304 24.7076 10.3395C24.7962 10.3881 24.8444 10.327 24.9217 10.3389C25.3028 10.3975 25.6425 10.3507 25.9961 10.3135C26.1126 10.3012 26.2928 10.4017 26.3839 10.3011C26.3944 10.2892 26.34 10.152 26.3387 10.1396C26.319 9.95019 26.4 10.2368 26.4381 10.2658C26.5887 10.3802 26.7056 10.3555 26.785 10.2691C26.8187 10.2319 26.6845 9.96799 26.7782 10.11C26.7847 10.1195 26.8236 10.2716 26.8403 10.2836C26.8779 10.3106 26.918 10.2678 26.9419 10.2729C26.9882 10.2835 26.9941 10.2799 27.0311 10.2694C27.0821 10.2564 27.1659 10.3105 27.2081 10.2591C27.217 10.2476 27.1512 10.1004 27.1607 10.0685C27.1703 10.0365 27.2227 10.0334 27.2509 10.0639C27.2791 10.0944 27.3121 10.2163 27.3241 10.2428C27.4249 10.4664 27.3738 10.1272 27.3783 10.1169C27.4639 9.93826 27.6369 10.0835 27.7594 10.0421C27.8522 10.0103 27.9317 9.91684 28.0231 9.89557C28.1321 9.87083 28.2491 9.9235 28.3469 9.87514C28.3573 9.87021 28.2849 9.69546 28.2975 9.68908C28.431 9.62144 28.577 9.59447 28.7571 9.6687C28.7752 9.6763 28.8095 9.83947 28.8307 9.85646C28.9595 9.95701 29.1987 10.222 29.0216 9.52084C29.0886 9.52819 29.1683 9.53228 29.2663 9.65287C29.3294 9.73047 29.3539 9.91252 29.3707 9.82574C29.3746 9.80637 29.3125 9.66047 29.3221 9.64276C29.3624 9.56834 29.4427 9.59572 29.4749 9.49893C29.4813 9.47889 29.4334 9.34562 29.4286 9.32032C29.3914 9.11504 29.5461 9.42331 29.5642 9.44345C29.7003 9.59306 29.734 9.5051 29.8077 9.48528C29.8249 9.48076 29.7449 9.30693 29.7592 9.29609C29.8344 9.24232 29.9263 9.22891 30.035 9.28164C30.0593 9.29381 30.0938 9.4531 30.108 9.46678C30.1702 9.52522 30.082 9.23206 30.1397 9.2825C30.1518 9.29276 30.1913 9.42581 30.1975 9.43979C30.2953 9.65925 30.2074 9.33139 30.2108 9.32239C30.2507 9.20136 30.4086 9.52155 30.4625 9.45079C30.4689 9.44198 30.3946 9.28176 30.4158 9.26719C30.5567 9.16915 30.7372 9.15982 30.9362 9.24145C30.9671 9.25391 30.9916 9.38471 30.9983 9.39962C31.1032 9.63231 31.0116 9.3042 31.0154 9.28943C31.0481 9.18131 31.1961 9.43275 31.11 9.03428C31.4164 9.0804 31.6052 8.77759 31.9798 9.03544C31.9844 9.03833 32.0315 9.19927 32.0405 9.20435C32.1496 9.26717 32.052 9.02517 32.0038 8.7055C31.9917 8.62521 32.1536 8.97663 32.166 9.00218C32.2119 9.09641 32.2772 9.3374 32.2879 9.35504C32.3738 9.49292 32.1073 8.71272 32.1557 8.69631C32.1576 8.69711 32.1992 8.8432 32.2081 8.85615C32.2357 8.89688 32.2292 8.8355 32.2581 8.88093C32.3246 8.98617 32.4613 9.36286 32.4309 9.12726C32.4268 9.09673 32.2705 8.65584 32.3208 8.66238C32.341 8.66536 32.4148 8.63229 32.4458 8.65391C32.4768 8.6755 32.5098 8.82336 32.5133 8.82905C32.634 8.9989 32.6382 9.08454 32.7604 9.35481C32.8822 9.62403 32.6525 8.96164 32.6395 8.88349C32.6267 8.80554 32.7209 8.94745 32.7493 8.99821C32.7778 9.04901 32.7951 9.14417 32.8146 9.17179C32.9426 9.35197 32.7314 8.83273 32.7164 8.72046C32.6806 8.45468 32.882 8.93556 32.9416 8.96939C32.9577 8.97852 32.9107 8.86939 32.9177 8.85539C32.9458 8.80143 33.0221 8.94701 33.0223 8.79016C33.0223 8.76459 32.9617 8.45534 33.0589 8.66471C33.0729 8.69493 33.1039 8.82115 33.1308 8.84278C33.171 8.87529 33.2275 8.88629 33.2422 8.83573C33.2531 8.79835 33.1616 8.60384 33.2089 8.65795C33.23 8.68213 33.2478 8.80786 33.2841 8.8434C33.3203 8.87898 33.3746 8.85508 33.3946 8.84388C33.4145 8.83261 33.3517 8.68287 33.3499 8.67195C33.3406 8.60919 33.3568 8.52149 33.3604 8.52047C33.5364 8.441 33.7906 8.64396 33.9394 8.49915C33.9512 8.488 33.8879 8.3291 33.8892 8.32573C33.9142 8.24197 34.0202 8.6852 34.1015 8.81828C33.9871 8.49114 34.0266 8.54412 34.0482 8.49688C34.0585 8.47385 34.0072 8.34949 34.0044 8.33597C33.9639 8.13464 34.0638 8.37879 34.0852 8.42844C34.1637 8.61107 34.107 8.38327 34.1596 8.50527C34.212 8.62634 34.2487 8.81945 34.2801 8.80635C34.2499 8.68566 34.1236 8.38611 34.1314 8.32812C34.1608 8.10886 34.4133 8.29278 34.4958 8.29313C34.5781 8.29351 34.5948 8.26383 34.6521 8.29199C34.7556 8.34293 34.651 8.12428 34.6646 8.00373C34.6783 7.88314 34.8418 8.45238 34.889 8.57074C34.9361 8.68909 34.9021 8.56242 34.9328 8.6259C34.9633 8.68937 34.9723 8.77755 35.0006 8.79579C35.0288 8.81401 35.0119 8.58121 34.9769 8.45266C34.9028 8.18033 34.7847 7.90795 34.8704 7.98893C34.8753 7.99377 34.9147 8.14467 34.9313 8.15571C35.0616 8.23855 35.1599 8.21359 35.2858 8.28333C35.3031 8.29316 35.3465 8.46115 35.3572 8.46873C35.4692 8.54812 35.3494 8.2804 35.2891 7.95876C35.416 8.37125 35.5228 8.61391 35.582 8.59687C35.6176 8.58676 35.552 8.41 35.5327 8.27643C35.5269 8.23618 35.5926 8.35065 35.5691 8.26508C35.4923 7.9853 35.3664 7.68543 35.4674 7.78788C35.472 7.79282 35.5137 7.94606 35.5259 7.95213C35.6048 7.9921 35.516 7.70228 35.5682 7.64621C35.6091 7.60224 35.7564 7.74791 35.8228 7.75745C35.975 8.21806 35.9936 8.09476 35.9097 7.77018C35.9509 7.77086 35.9849 7.73963 36.0352 7.77159C36.0524 7.78245 36.0888 7.91838 36.0951 7.93226C36.1942 8.15019 36.1073 7.83613 36.1113 7.82137C36.1585 7.67493 36.3068 7.88544 36.3131 7.62929C36.3133 7.62008 36.2115 7.29882 36.3113 7.52489C36.3181 7.5405 36.3393 7.69503 36.3819 7.69335C36.4244 7.69169 36.5547 7.83868 36.5592 7.6726C36.5603 7.63259 36.5068 7.36209 36.6009 7.55603C36.6136 7.58239 36.6403 7.67536 36.6624 7.72468C36.733 7.88177 36.6343 7.55566 36.7451 7.82372C36.8559 8.09177 36.9646 8.28393 36.9558 8.07644C36.9557 8.07036 36.8832 7.80998 36.9017 7.80833C36.9312 7.80593 36.9877 7.84638 37.0156 7.83522C37.0289 7.82978 36.9672 7.67367 36.9686 7.66997C37.0306 7.5503 37.1431 7.67033 37.2618 7.69913C37.2836 7.70472 37.2631 7.47063 37.3551 7.63046C37.4559 7.80538 37.6768 8.5992 37.7027 8.38389C37.7134 8.29767 37.4282 7.29222 37.663 7.78414C37.7443 7.61577 37.9462 7.8403 38.0096 7.6174C38.0125 7.6075 37.938 7.32519 37.9524 7.32458C37.9739 7.32422 38.0276 7.44986 38.0444 7.45374C38.1156 7.47325 38.132 7.34495 38.1939 7.34343C38.2173 7.34258 38.2544 7.47865 38.2823 7.47765C38.3101 7.47652 38.2684 7.29496 38.3312 7.36845C38.3788 7.42454 38.5246 7.77545 38.5731 7.80585C38.4562 7.45074 38.4823 7.45015 38.4932 7.34248C38.4953 7.32162 38.4455 7.20106 38.4443 7.18483C38.4387 7.11601 38.4872 7.21351 38.4789 7.13932C38.477 7.12148 38.4368 7.0003 38.4329 6.97888C38.3985 6.79216 38.5306 7.05087 38.5535 7.09595C38.6406 7.26706 38.6008 7.1053 38.6453 7.16931C38.6897 7.23332 38.6882 7.33235 38.7268 7.36731C38.8068 7.43957 38.865 7.39845 38.918 7.38698C38.9389 7.38165 38.8711 7.22461 38.8728 7.22009C38.9013 7.16503 39.0013 7.32279 38.9173 6.99294C39.2241 7.81592 38.9159 6.9037 39.0317 7.0503C39.041 7.0622 39.1782 7.45397 39.1793 7.51786C39.1803 7.5817 39.1116 7.46782 39.1164 7.56637C39.1174 7.58951 39.2061 7.96996 39.2088 7.99387C39.2304 8.18079 39.0291 7.59406 39.0164 7.56238C38.8781 7.22092 38.9687 7.63242 38.9668 7.66357C38.9582 7.80628 38.8877 7.73782 38.8754 7.84175C38.8671 7.90902 38.9929 8.29539 38.9672 8.29082C38.8821 8.27587 38.6777 7.74653 38.7651 8.23543C38.7837 8.33973 38.9386 8.7562 38.7759 8.44233C38.7657 8.42254 38.6259 8.1324 38.6674 8.33156C38.6726 8.35667 38.7136 8.47942 38.7134 8.49098C38.7107 8.56598 38.6616 8.47369 38.6501 8.52957C38.6386 8.58545 38.6293 8.66614 38.5845 8.63481C38.5576 8.61612 38.4574 8.39533 38.4298 8.3423C38.3508 8.18936 38.412 8.46289 38.3313 8.27272C38.2501 8.08161 38.1815 7.77316 38.0979 7.66004C38.2027 7.97955 38.3083 8.30814 38.4128 8.62976C38.3186 8.64868 38.1952 8.57519 38.1091 8.61954C38.0986 8.62535 38.1672 8.79301 38.1574 8.80367C38.1156 8.84787 38.0304 8.74044 37.9938 8.80671C37.9657 8.85867 37.9815 9.05517 37.954 9.11516C37.8062 8.75883 37.7841 8.90387 37.727 8.88586C37.707 8.87971 37.6756 8.78186 37.6535 8.75388C37.571 8.65068 37.6988 8.96648 37.7039 9.0212C37.7252 9.25482 37.4775 8.52616 37.4235 8.5642C37.4206 8.56597 37.5114 8.9681 37.5141 8.99412C37.5328 9.16349 37.4633 8.86054 37.4325 8.83888C37.3761 8.79928 37.3181 8.71534 37.3105 8.84453C37.3085 8.88272 37.3574 9.13593 37.2691 8.9569C37.2575 8.93347 37.2165 8.8042 37.2112 8.79758C37.1199 8.6885 37.2533 9.09313 37.2707 9.23945C37.288 9.38574 37.1513 9.12127 37.1156 9.04382C37.023 8.84353 37.1038 8.94897 37.0983 8.92813C37.0321 8.68025 37.0142 8.73269 36.983 8.72028C36.8474 8.32513 36.8212 8.36027 36.9512 8.709C36.9654 8.74708 36.9721 8.7038 36.983 8.72028C37.0912 9.11625 37.0704 9.17852 36.908 8.82892C36.8319 8.66506 36.784 8.46039 36.7494 8.55262C36.7337 8.5943 36.8349 8.86375 36.8362 8.946C36.839 9.13367 36.6843 8.90239 36.6422 8.96098C36.627 8.98224 36.6963 9.12509 36.6876 9.14477C36.6646 9.19747 36.5951 9.09611 36.5776 9.16574C36.5761 9.17224 36.6363 9.3259 36.6256 9.33169C36.5452 9.37864 36.4366 9.30356 36.3455 9.33085C36.3015 9.3441 36.2523 9.45631 36.2014 9.45402C36.1135 9.45097 35.9414 9.25566 35.893 9.33318C35.8612 9.38307 35.9229 9.53628 35.9397 9.64907C35.9725 9.86764 35.7854 9.51891 35.7577 9.46448C35.7568 9.46267 35.782 9.4133 35.7352 9.33969C35.6679 9.17628 35.7579 9.46362 35.7577 9.46448C35.7397 9.42935 35.6529 9.41883 35.648 9.45368C35.6454 9.47272 35.6993 9.61939 35.697 9.62651C35.641 9.79252 35.5531 9.86364 35.4284 9.82822C35.4256 9.82583 35.3731 9.65918 35.3672 9.65561C35.2838 9.60153 35.3137 9.81685 35.3053 9.9534C35.2969 10.0899 35.245 10.0624 35.1214 9.78745C35.0968 9.83548 35.0023 9.72719 34.9466 9.66094C34.891 9.59468 34.9943 9.91873 34.9938 9.92599C34.9789 10.1578 34.8694 9.98909 34.7737 9.98903C34.7281 9.98845 34.6625 10.0623 34.63 10.1123C34.6044 10.1524 34.5582 10.0838 34.542 10.1429C34.5398 10.1509 34.5921 10.293 34.5926 10.299C34.6139 10.4829 34.5141 10.1259 34.4858 10.0657C34.3828 9.84659 34.3257 9.73066 34.3154 9.85332C34.3129 9.88144 34.4505 10.3974 34.4409 10.4335C34.4282 10.4794 34.3773 10.295 34.3656 10.3477C34.3645 10.352 34.4023 10.4637 34.3843 10.4642C34.3016 10.4679 34.1975 10.4304 34.1227 10.4677C34.1123 10.4724 34.1852 10.6452 34.1712 10.6549C34.1054 10.7001 34.0235 10.7202 33.9249 10.6608C33.9005 10.6456 33.87 10.5178 33.854 10.4822C33.7563 10.2668 33.8314 10.602 33.828 10.6099C33.7502 10.809 33.5531 10.5487 33.4674 10.7325C33.4629 10.7431 33.5233 11.1091 33.3992 10.8193C33.3909 10.8 33.2648 10.5032 33.3127 10.7189C33.3157 10.7324 33.3833 10.8843 33.3513 10.8772C33.3194 10.8701 33.3115 10.9892 33.2175 10.8289C33.1878 10.7784 33.059 10.4833 33.1053 10.7373C33.1087 10.755 33.2381 11.321 33.093 10.9491C33.0692 10.8879 32.939 10.4865 32.9662 10.7055C32.9716 10.7479 33.0156 10.8324 33.0135 10.8951C33.0103 10.9916 32.9325 10.8984 32.9528 11.0898C32.9565 11.1236 33.0181 11.405 32.9261 11.2065C32.9117 11.1754 32.8741 11.0395 32.8568 11.0286C32.7744 10.9763 32.743 11.0861 32.6529 11.0134C32.621 10.988 32.5598 10.7683 32.5186 10.7177C32.4774 10.6672 32.4147 10.6262 32.4247 10.7326C32.4347 10.839 32.5745 11.1749 32.5493 11.2139C32.4399 11.3834 32.2246 11.2307 32.0656 11.2508C32.0421 11.2538 32.1015 11.3709 32.0696 11.3841C31.9525 11.4333 31.7836 11.618 31.5921 11.3909C31.4386 11.2091 31.4906 11.0144 31.3983 10.9503C31.3539 10.9199 31.454 11.3313 31.4508 11.3464C31.4208 11.4986 31.3112 11.3381 31.2639 11.4143C31.2542 11.4301 31.3215 11.588 31.3126 11.5996C31.2828 11.6408 31.2174 11.5822 31.1843 11.6079C31.1696 11.6198 31.214 11.7427 31.1953 11.7383C31.1511 11.7292 31.101 11.688 31.0261 11.5839C31.0193 11.5744 30.9901 11.4129 30.9608 11.4163C30.9135 11.4222 30.8202 11.326 30.8086 11.4613C30.8054 11.502 30.8992 11.7854 30.8014 11.6007C30.781 11.5621 30.6763 11.2191 30.7364 11.5256C30.7463 11.5765 30.8146 11.9941 30.6982 11.749C30.6676 11.6846 30.5538 11.4133 30.5501 11.4631C30.55 11.4709 30.6106 11.6197 30.6005 11.6396C30.5638 11.707 30.5027 11.7093 30.4639 11.7752C30.4537 11.793 30.5279 11.9432 30.5109 11.9649C30.4644 12.0246 30.3763 12.0094 30.3014 11.9796C30.2737 11.9683 30.2452 11.8329 30.2389 11.8193C30.1367 11.5969 30.2256 11.9134 30.2233 11.9344C30.2075 12.0605 30.1191 11.9274 30.084 11.9821C30.0742 11.9968 30.1331 12.1422 30.1348 12.1563C30.1506 12.2949 30.0821 12.0213 30.055 11.9977C29.9787 11.9306 29.9287 11.9605 29.8859 11.9958C29.8703 12.009 29.948 12.1745 29.9333 12.1844C29.8475 12.246 29.7426 12.2626 29.6175 12.1988C29.5939 12.1865 29.5607 12.0501 29.547 12.0211C29.4511 11.8175 29.5104 12.119 29.5111 12.1493C29.5143 12.288 29.4601 12.1757 29.4332 12.209C29.3025 12.3737 29.0703 12.3647 28.8966 12.3693C28.6706 12.376 28.469 12.303 28.284 12.4011C28.2722 12.4071 28.3436 12.5794 28.3341 12.5869C28.2097 12.6756 28.0502 12.6522 27.9283 12.7494C27.9182 12.7571 27.9904 12.9189 27.976 12.9368C27.947 12.9748 27.8964 12.9815 27.8407 12.9407C27.8136 12.9212 27.7906 12.7694 27.7643 12.7526C27.703 12.7133 27.6526 12.7168 27.6169 12.7585C27.6019 12.7766 27.6875 12.9381 27.6635 12.9483C27.5013 13.0212 27.3463 13.1056 27.1029 12.9406C27.0862 12.9293 26.9601 12.585 26.9576 12.6599C26.9879 12.757 27.0258 12.8705 27.0594 12.9739C26.8335 13.1109 26.5515 13.071 26.3002 13.134C26.2897 13.1367 26.3689 13.315 26.3487 13.3212C26.2321 13.357 26.1367 13.4455 25.9572 13.3019C25.9395 13.2879 25.8375 12.9618 25.8192 13.0223C25.8161 13.0333 25.7784 13.0939 25.7883 13.1688C25.79 13.18 25.85 13.3281 25.8346 13.3381C25.7446 13.3936 25.6308 13.3932 25.5025 13.3333C25.4817 13.3233 25.4448 13.1566 25.4295 13.1481C25.3215 13.0891 25.2758 13.2404 25.1511 13.1194C25.0675 13.0379 24.9935 12.7531 24.8751 12.488C24.8584 12.4506 24.8249 12.455 24.7701 12.296C24.6322 11.8964 24.5011 11.4522 24.3524 11.0268C24.3204 10.9352 24.3113 11.0484 24.2621 10.8176C24.2589 10.8021 24.2648 10.7181 24.2472 10.6401C24.2351 10.5862 24.1716 10.4271 24.16 10.3568C24.1484 10.2864 24.2055 10.4185 24.1971 10.3341C24.1883 10.2487 24.119 10.0668 24.1472 10.0332ZM34.6968 9.36512C34.6172 9.21951 34.8022 9.78838 34.7872 9.64252C34.7863 9.63479 34.7008 9.37224 34.6968 9.36512ZM38.053 8.14697C37.933 7.90885 38.0306 8.28525 38.1209 8.46996C38.2111 8.65447 38.0895 8.21913 38.053 8.14697ZM38.3715 7.83778C38.263 7.65467 38.5245 8.46165 38.516 8.28371C38.5156 8.27363 38.3778 7.8484 38.3715 7.83778ZM24.9744 12.3682C24.9715 12.3608 24.9464 12.361 24.9483 12.3687C24.9964 12.5529 25.0465 12.5524 24.9744 12.3682ZM38.6817 7.51334C38.6321 7.40893 38.6355 7.54741 38.6972 7.67724C38.7469 7.78169 38.7434 7.64321 38.6817 7.51334ZM33.0351 9.24601C33.0318 9.2377 33.0131 9.23549 33.0293 9.28318C33.0818 9.43678 33.0899 9.3858 33.0351 9.24601ZM39.3185 7.29082C39.2138 7.29203 38.935 6.64639 39.0629 6.68708C39.0861 6.69444 39.0934 6.91246 39.1371 6.96448C39.2169 7.0592 39.1066 6.6322 39.2255 6.84109C39.2471 6.87936 39.3249 7.29222 39.3186 7.2918C39.3186 7.29147 39.3185 7.29114 39.3185 7.29082ZM34.4535 8.68885C34.4505 8.68154 34.4257 8.68191 34.4276 8.68952C34.4755 8.87374 34.5255 8.8731 34.4535 8.68885ZM31.9714 9.21065C31.9648 9.19507 31.9077 9.19749 31.9109 9.21279C31.9819 9.51647 32.0977 9.51246 31.9714 9.21065ZM35.8278 7.76942C35.7919 7.58001 35.8141 7.5489 35.9095 7.76999C35.8811 7.76602 35.856 7.77241 35.8278 7.76942Z" fill="var(--stroke-0, black)"/>
</g>
</svg>
