<svg preserveAspectRatio="none" width="100%" height="100%" overflow="visible" style="display: block;" viewBox="0 0 18 22" fill="none" xmlns="http://www.w3.org/2000/svg">
<g id="ic:baseline-apple" clip-path="url(#clip0_873_5320)">
<path id="Vector" d="M14.8917 20.66C13.7483 21.7683 12.5 21.5933 11.2983 21.0683C10.0267 20.5317 8.86 20.5083 7.51833 21.0683C5.83833 21.7917 4.95167 21.5817 3.94833 20.66C-1.745 14.7917 -0.905 5.855 5.55833 5.52833C7.13333 5.61 8.23 6.39167 9.15167 6.46167C10.5283 6.18167 11.8467 5.37667 13.3167 5.48167C15.0783 5.62167 16.4083 6.32167 17.2833 7.58167C13.6433 9.76333 14.5067 14.5583 17.8433 15.9C17.1783 17.65 16.315 19.3883 14.88 20.6717L14.8917 20.66ZM9.035 5.45833C8.86 2.85667 10.9717 0.71 13.3983 0.5C13.7367 3.51 10.6683 5.75 9.035 5.45833Z" fill="var(--fill-0, white)"/>
</g>
<defs>
<clipPath id="clip0_873_5320">
<rect width="18" height="22" fill="white"/>
</clipPath>
</defs>
</svg>
