<svg preserveAspectRatio="none" width="100%" height="100%" overflow="visible" style="display: block;" viewBox="0 0 79 13" fill="none" xmlns="http://www.w3.org/2000/svg">
<g id="Cellular,Wifi,Battery (iPhone)">
<g id="Battery">
<rect id="Border" opacity="0.35" x="51.4333" y="0.5" width="24" height="12" rx="3" stroke="var(--stroke-0, black)"/>
<path id="Cap" opacity="0.4" d="M76.9333 4.66667V8.66667C77.7381 8.32789 78.2614 7.5398 78.2614 6.66667C78.2614 5.79353 77.7381 5.00544 76.9333 4.66667" fill="var(--fill-0, black)"/>
<rect id="Capacity" x="52.9333" y="2" width="21" height="9" rx="1.33333" fill="var(--fill-0, black)"/>
</g>
<path id="Wifi" d="M32.7124 9.62573C34.091 8.3471 36.1103 8.34692 37.4888 9.62573C37.558 9.69449 37.5982 9.79184 37.6001 9.89429C37.602 9.99683 37.5653 10.0959 37.4985 10.1677L35.3394 12.5574C35.2761 12.6273 35.1899 12.6667 35.1001 12.6667C35.0102 12.6667 34.9241 12.6274 34.8608 12.5574L32.7017 10.1677C32.635 10.0958 32.5981 9.99683 32.6001 9.89429C32.6021 9.79175 32.643 9.69447 32.7124 9.62573ZM29.7085 6.7771C32.747 3.96324 37.4532 3.96324 40.4917 6.7771C40.5602 6.84307 40.5991 6.93417 40.6001 7.02905C40.601 7.12377 40.5636 7.21473 40.4966 7.28198L39.2202 8.56616C39.0887 8.69727 38.8757 8.70058 38.7407 8.573C37.743 7.67355 36.4451 7.17553 35.0991 7.17554C33.7539 7.17609 32.4566 7.67407 31.4595 8.573C31.3245 8.70059 31.1115 8.69727 30.98 8.56616L29.7036 7.28198C29.6366 7.21483 29.5993 7.12374 29.6001 7.02905C29.601 6.93413 29.6399 6.84307 29.7085 6.7771ZM26.7075 3.86011C31.3993 -0.397727 38.8008 -0.39766 43.4927 3.86011C43.5606 3.92337 43.5995 4.01013 43.6001 4.10034C43.6006 4.19048 43.5637 4.27759 43.4966 4.34155L42.2095 5.57104C42.0769 5.69725 41.8617 5.69823 41.7271 5.57397C39.9395 3.96463 37.5666 3.06724 35.1001 3.06714C32.6335 3.06725 30.2609 3.96457 28.4731 5.57397C28.3386 5.69842 28.1232 5.69744 27.9907 5.57104L26.7036 4.34155C26.6366 4.27756 26.5995 4.19047 26.6001 4.10034C26.6007 4.01013 26.6396 3.92332 26.7075 3.86011Z" fill="var(--fill-0, black)"/>
<path id="Cellular Connection" d="M2.13379 8.06714C2.72262 8.0674 3.2001 8.58168 3.2002 9.21655V11.5164C3.2002 12.1513 2.72268 12.6665 2.13379 12.6667H1.06641C0.477422 12.6666 0 12.1514 0 11.5164V9.21655C9.79152e-05 8.58161 0.477483 8.06729 1.06641 8.06714H2.13379ZM7.43359 5.66675C8.02258 5.6669 8.5 6.1895 8.5 6.83374V11.4998C8.5 12.144 8.02258 12.6666 7.43359 12.6667H6.36621C5.77732 12.6665 5.2998 12.1439 5.2998 11.4998V6.83374C5.2998 6.18957 5.77732 5.66702 6.36621 5.66675H7.43359ZM12.833 3.06714C13.422 3.06714 13.9003 3.58239 13.9004 4.21851V11.5144C13.9004 12.1506 13.4221 12.6667 12.833 12.6667H11.7666C11.1775 12.6667 10.7002 12.1506 10.7002 11.5144V4.21851C10.7003 3.58241 11.1776 3.06718 11.7666 3.06714H12.833ZM18.1338 0.666748C18.7227 0.667008 19.2002 1.17059 19.2002 1.79175V11.5417C19.2002 12.1629 18.7227 12.6665 18.1338 12.6667H17.0664C16.4774 12.6666 16 12.163 16 11.5417V1.79175C16 1.17052 16.4774 0.666896 17.0664 0.666748H18.1338Z" fill="var(--fill-0, black)"/>
</g>
</svg>
