<svg preserveAspectRatio="none" width="100%" height="100%" overflow="visible" style="display: block;" viewBox="0 0 19 20" fill="none" xmlns="http://www.w3.org/2000/svg">
<g id="Group">
<g id="Vector">
</g>
<path id="Vector_2" fill-rule="evenodd" clip-rule="evenodd" d="M9.16667 0C4.10392 0 0 4.10392 0 9.16667C0 10.8992 0.48125 12.5217 1.31817 13.904L0.5005 16.6833C0.453553 16.8429 0.450463 17.0122 0.491557 17.1734C0.532651 17.3346 0.61641 17.4817 0.734029 17.5993C0.851648 17.7169 0.998783 17.8007 1.15997 17.8418C1.32115 17.8829 1.49042 17.8798 1.65 17.8328L4.42933 17.0152C5.85818 17.8795 7.49672 18.3355 9.16667 18.3333C14.2294 18.3333 18.3333 14.2294 18.3333 9.16667C18.3333 4.10392 14.2294 0 9.16667 0ZM7.09317 11.2411C8.94758 13.0946 10.7177 13.3393 11.3428 13.3623C12.2934 13.3971 13.2192 12.6711 13.5795 11.8287C13.6246 11.7238 13.6409 11.6088 13.6267 11.4955C13.6125 11.3822 13.5684 11.2748 13.4988 11.1843C12.9965 10.5426 12.3173 10.0815 11.6536 9.62317C11.5151 9.52713 11.3447 9.48856 11.1784 9.51558C11.012 9.54259 10.8627 9.63308 10.7617 9.768L10.2117 10.6068C10.1826 10.6517 10.1375 10.6839 10.0856 10.6968C10.0337 10.7097 9.97883 10.7024 9.93208 10.6764C9.559 10.4628 9.01542 10.0998 8.62492 9.70933C8.23442 9.31883 7.89342 8.8 7.70183 8.45075C7.67866 8.40625 7.67211 8.35495 7.68337 8.30605C7.69462 8.25716 7.72295 8.21388 7.76325 8.184L8.61025 7.55517C8.73148 7.45029 8.80974 7.30437 8.83004 7.14537C8.85034 6.98637 8.81124 6.82546 8.72025 6.6935C8.30958 6.09217 7.83108 5.32767 7.13717 4.82075C7.04742 4.75627 6.94255 4.71606 6.8327 4.70402C6.72285 4.69197 6.61175 4.7085 6.51017 4.752C5.66683 5.11317 4.93717 6.039 4.972 6.99142C4.99492 7.61658 5.23967 9.38667 7.09317 11.2411Z" fill="var(--fill-0, #00C414)"/>
</g>
</svg>
